%
M48
M72
T01C0.0157
T02C0.0236
T03C0.0354
%
T01
X4530Y1330
X7045Y2345
X8180Y2830
X8680Y2680
X8180Y3680
X7630Y3680
X7180Y3680
X7118Y4180
X8180Y4480
X8549Y4480
X9305Y4055
X7463Y1097
T02
X1305Y1305
X1680Y1555
X3430Y1305
X3930Y1430
X3430Y4805
X3930Y4930
X1680Y5055
X1305Y4805
X11805Y4430
X12305Y4430
X12305Y1805
X11805Y1805
T03
X2680Y2314
X2680Y4046
M30
