%
M48
M72
T01C0.0157
T02C0.0236
T03C0.0315
T04C0.0354
%
T01
X4780Y1580
X7295Y2595
X8430Y3080
X8930Y2930
X9439Y3210
X9490Y3680
X8430Y3930
X7880Y3930
X7430Y3930
X7368Y4310
X8430Y4730
X8924Y4730
X7713Y1347
T02
X1555Y1555
X1930Y1805
X3680Y1555
X4180Y1680
X3680Y5055
X4180Y5180
X1930Y5305
X1555Y5055
T03
X10305Y3699
X10305Y2911
T04
X2930Y2564
X2930Y4296
M30
