G75*
G70*
%OFA0B0*%
%FSLAX24Y24*%
%IPPOS*%
%LPD*%
%AMOC8*
5,1,8,0,0,1.08239X$1,22.5*
%
%ADD10C,0.0050*%
%ADD11C,0.0080*%
%ADD12C,0.0120*%
%ADD13C,0.0090*%
%ADD14C,0.0070*%
D10*
X002206Y000739D02*
X002251Y000694D01*
X002341Y000694D01*
X002387Y000739D01*
X002387Y000964D01*
X002501Y000919D02*
X002501Y000874D01*
X002546Y000829D01*
X002636Y000829D01*
X002681Y000784D01*
X002681Y000739D01*
X002636Y000694D01*
X002546Y000694D01*
X002501Y000739D01*
X002206Y000739D02*
X002206Y000964D01*
X002501Y000919D02*
X002546Y000964D01*
X002636Y000964D01*
X002681Y000919D01*
X002796Y000964D02*
X002931Y000964D01*
X002976Y000919D01*
X002976Y000874D01*
X002931Y000829D01*
X002796Y000829D01*
X002931Y000829D02*
X002976Y000784D01*
X002976Y000739D01*
X002931Y000694D01*
X002796Y000694D01*
X002796Y000964D01*
X004822Y001089D02*
X005093Y001089D01*
X005093Y001269D01*
X004958Y001179D02*
X004958Y001089D01*
X004822Y001089D02*
X004822Y001269D01*
X004822Y001383D02*
X004822Y001518D01*
X004868Y001563D01*
X005048Y001563D01*
X005093Y001518D01*
X005093Y001383D01*
X004822Y001383D01*
X004913Y001678D02*
X004822Y001768D01*
X005093Y001768D01*
X005093Y001678D02*
X005093Y001858D01*
X005666Y001813D02*
X005666Y001723D01*
X005711Y001678D01*
X005711Y001563D02*
X005666Y001518D01*
X005666Y001383D01*
X005936Y001383D01*
X005936Y001518D01*
X005891Y001563D01*
X005711Y001563D01*
X005936Y001678D02*
X005756Y001858D01*
X005711Y001858D01*
X005666Y001813D01*
X005936Y001858D02*
X005936Y001678D01*
X005936Y001269D02*
X005936Y001089D01*
X005666Y001089D01*
X005666Y001269D01*
X005801Y001179D02*
X005801Y001089D01*
X005936Y000974D02*
X005936Y000794D01*
X005666Y000794D01*
X005093Y000794D02*
X005093Y000974D01*
X005093Y000794D02*
X004822Y000794D01*
X007086Y001396D02*
X007176Y001306D01*
X007086Y001396D02*
X007356Y001396D01*
X007356Y001306D02*
X007356Y001487D01*
X007356Y001601D02*
X007311Y001601D01*
X007311Y001646D01*
X007356Y001646D01*
X007356Y001601D01*
X007311Y001748D02*
X007356Y001793D01*
X007356Y001883D01*
X007311Y001929D01*
X007266Y001929D01*
X007221Y001883D01*
X007221Y001838D01*
X007221Y001883D02*
X007176Y001929D01*
X007131Y001929D01*
X007086Y001883D01*
X007086Y001793D01*
X007131Y001748D01*
X007086Y002043D02*
X007356Y002043D01*
X007266Y002043D02*
X007176Y002178D01*
X007266Y002043D02*
X007356Y002178D01*
X007306Y002806D02*
X007306Y002896D01*
X007306Y002851D02*
X007036Y002851D01*
X007036Y002806D02*
X007036Y002896D01*
X007081Y003003D02*
X007261Y003003D01*
X007306Y003048D01*
X007306Y003138D01*
X007261Y003183D01*
X007306Y003297D02*
X007306Y003478D01*
X007306Y003388D02*
X007036Y003388D01*
X007126Y003297D01*
X007081Y003183D02*
X007036Y003138D01*
X007036Y003048D01*
X007081Y003003D01*
X006106Y003031D02*
X006016Y002896D01*
X005926Y003031D01*
X005836Y002896D02*
X006106Y002896D01*
X006061Y002781D02*
X005881Y002781D01*
X006061Y002601D01*
X006106Y002646D01*
X006106Y002736D01*
X006061Y002781D01*
X005881Y002781D02*
X005836Y002736D01*
X005836Y002646D01*
X005881Y002601D01*
X006061Y002601D01*
X006106Y002487D02*
X006106Y002306D01*
X006106Y002396D02*
X005836Y002396D01*
X005926Y002306D01*
X005006Y002456D02*
X005006Y002637D01*
X005006Y002546D02*
X004736Y002546D01*
X004826Y002456D01*
X004736Y002751D02*
X005006Y002751D01*
X004916Y002751D02*
X004826Y002886D01*
X004916Y002751D02*
X005006Y002886D01*
X007086Y004746D02*
X007176Y004656D01*
X007086Y004746D02*
X007356Y004746D01*
X007356Y004656D02*
X007356Y004837D01*
X007311Y004951D02*
X007176Y004951D01*
X007311Y004951D02*
X007356Y004996D01*
X007356Y005131D01*
X007176Y005131D01*
X007221Y005246D02*
X007221Y005336D01*
X007086Y005246D02*
X007086Y005426D01*
X006944Y005382D02*
X006899Y005427D01*
X006809Y005427D01*
X006764Y005382D01*
X006764Y005201D01*
X006809Y005156D01*
X006899Y005156D01*
X006944Y005201D01*
X007086Y005246D02*
X007356Y005246D01*
X006649Y005427D02*
X006469Y005427D01*
X006559Y005427D02*
X006559Y005156D01*
X006354Y005291D02*
X006309Y005246D01*
X006174Y005246D01*
X006354Y005291D02*
X006354Y005382D01*
X006309Y005427D01*
X006174Y005427D01*
X006174Y005156D01*
X005765Y005156D02*
X005765Y005337D01*
X005675Y005427D01*
X005585Y005337D01*
X005585Y005156D01*
X005470Y005156D02*
X005470Y005291D01*
X005425Y005337D01*
X005380Y005291D01*
X005380Y005156D01*
X005290Y005156D02*
X005290Y005337D01*
X005335Y005337D01*
X005380Y005291D01*
X005585Y005291D02*
X005765Y005291D01*
X005176Y005201D02*
X005131Y005156D01*
X005041Y005156D01*
X004996Y005201D01*
X005176Y005382D01*
X005176Y005201D01*
X004996Y005201D02*
X004996Y005382D01*
X005041Y005427D01*
X005131Y005427D01*
X005176Y005382D01*
X004881Y005382D02*
X004701Y005201D01*
X004746Y005156D01*
X004836Y005156D01*
X004881Y005201D01*
X004881Y005382D01*
X004836Y005427D01*
X004746Y005427D01*
X004701Y005382D01*
X004701Y005201D01*
X004587Y005201D02*
X004541Y005156D01*
X004451Y005156D01*
X004406Y005201D01*
X004406Y005291D02*
X004496Y005337D01*
X004541Y005337D01*
X004587Y005291D01*
X004587Y005201D01*
X004406Y005291D02*
X004406Y005427D01*
X004587Y005427D01*
X004576Y005806D02*
X004441Y005806D01*
X004486Y005896D02*
X004441Y005941D01*
X004486Y005987D01*
X004621Y005987D01*
X004576Y005896D02*
X004486Y005896D01*
X004576Y005896D02*
X004621Y005851D01*
X004576Y005806D01*
X004736Y005806D02*
X004781Y005806D01*
X004781Y005851D01*
X004736Y005851D01*
X004736Y005806D01*
X004883Y005851D02*
X004928Y005806D01*
X005063Y005806D01*
X005178Y005851D02*
X005223Y005806D01*
X005313Y005806D01*
X005358Y005851D01*
X005358Y005941D01*
X005313Y005987D01*
X005223Y005987D01*
X005178Y005941D01*
X005178Y005851D01*
X004928Y005987D02*
X004883Y005941D01*
X004883Y005851D01*
X004928Y005987D02*
X005063Y005987D01*
X005472Y005987D02*
X005472Y005806D01*
X005562Y005806D02*
X005562Y005941D01*
X005608Y005987D01*
X005653Y005941D01*
X005653Y005806D01*
X005767Y005806D02*
X005947Y006077D01*
X006062Y005987D02*
X006062Y005851D01*
X006107Y005806D01*
X006242Y005806D01*
X006242Y005987D01*
X006356Y005941D02*
X006401Y005987D01*
X006536Y005987D01*
X006651Y005987D02*
X006786Y005987D01*
X006831Y005941D01*
X006831Y005851D01*
X006786Y005806D01*
X006651Y005806D01*
X006651Y006077D01*
X006946Y006077D02*
X006991Y006077D01*
X006991Y005806D01*
X006946Y005806D02*
X007036Y005806D01*
X007142Y005806D02*
X007232Y005806D01*
X007187Y005806D02*
X007187Y005987D01*
X007142Y005987D01*
X007187Y006077D02*
X007187Y006122D01*
X007339Y005987D02*
X007474Y005987D01*
X007519Y005941D01*
X007519Y005851D01*
X007474Y005806D01*
X007339Y005806D01*
X007339Y005716D02*
X007339Y005987D01*
X007633Y005941D02*
X007633Y005851D01*
X007678Y005806D01*
X007768Y005806D01*
X007813Y005851D01*
X007813Y005941D01*
X007768Y005987D01*
X007678Y005987D01*
X007633Y005941D01*
X006536Y005851D02*
X006491Y005896D01*
X006401Y005896D01*
X006356Y005941D01*
X006356Y005806D02*
X006491Y005806D01*
X006536Y005851D01*
X005562Y005941D02*
X005517Y005987D01*
X005472Y005987D01*
X004327Y005987D02*
X004192Y005987D01*
X004147Y005941D01*
X004147Y005851D01*
X004192Y005806D01*
X004327Y005806D01*
X004040Y005806D02*
X003950Y005806D01*
X003995Y005806D02*
X003995Y005987D01*
X003950Y005987D01*
X003995Y006077D02*
X003995Y006122D01*
X003836Y005941D02*
X003791Y005987D01*
X003655Y005987D01*
X003655Y005806D01*
X003541Y005851D02*
X003541Y005941D01*
X003496Y005987D01*
X003406Y005987D01*
X003361Y005941D01*
X003361Y005851D01*
X003406Y005806D01*
X003496Y005806D01*
X003541Y005851D01*
X003836Y005806D02*
X003836Y005941D01*
X003250Y005987D02*
X003205Y005987D01*
X003115Y005896D01*
X003115Y005806D02*
X003115Y005987D01*
X003009Y005987D02*
X002919Y005987D01*
X002964Y006032D02*
X002964Y005851D01*
X003009Y005806D01*
X002804Y005896D02*
X002804Y005941D01*
X002759Y005987D01*
X002669Y005987D01*
X002624Y005941D01*
X002624Y005851D01*
X002669Y005806D01*
X002759Y005806D01*
X002804Y005896D02*
X002624Y005896D01*
X002510Y005896D02*
X002510Y005941D01*
X002465Y005987D01*
X002375Y005987D01*
X002330Y005941D01*
X002330Y005851D01*
X002375Y005806D01*
X002465Y005806D01*
X002510Y005896D02*
X002330Y005896D01*
X002219Y005987D02*
X002174Y005987D01*
X002084Y005896D01*
X002084Y005806D02*
X002084Y005987D01*
X001978Y005941D02*
X001888Y005941D01*
X001933Y006032D02*
X001978Y006077D01*
X001933Y006032D02*
X001933Y005806D01*
X001785Y005806D02*
X001740Y005806D01*
X001740Y005851D01*
X001785Y005851D01*
X001785Y005806D01*
X001626Y005851D02*
X001626Y005987D01*
X001446Y005987D02*
X001446Y005851D01*
X001491Y005806D01*
X001536Y005851D01*
X001581Y005806D01*
X001626Y005851D01*
X001331Y005851D02*
X001331Y005987D01*
X001151Y005987D02*
X001151Y005851D01*
X001196Y005806D01*
X001241Y005851D01*
X001286Y005806D01*
X001331Y005851D01*
X001037Y005851D02*
X001037Y005987D01*
X000856Y005987D02*
X000856Y005851D01*
X000901Y005806D01*
X000946Y005851D01*
X000991Y005806D01*
X001037Y005851D01*
X008206Y004977D02*
X008206Y004706D01*
X008387Y004706D01*
X008501Y004706D02*
X008591Y004706D01*
X008546Y004706D02*
X008546Y004887D01*
X008501Y004887D01*
X008546Y004977D02*
X008546Y005022D01*
X008697Y004977D02*
X008833Y004977D01*
X008878Y004932D01*
X008878Y004841D01*
X008833Y004796D01*
X008697Y004796D01*
X008697Y004706D02*
X008697Y004977D01*
X008992Y004841D02*
X008992Y004751D01*
X009037Y004706D01*
X009127Y004706D01*
X009172Y004751D01*
X009172Y004841D01*
X009127Y004887D01*
X009037Y004887D01*
X008992Y004841D01*
X009581Y004841D02*
X009581Y004751D01*
X009626Y004706D01*
X009762Y004706D01*
X009876Y004706D02*
X009876Y004977D01*
X009921Y004887D02*
X009876Y004841D01*
X009921Y004887D02*
X010011Y004887D01*
X010056Y004841D01*
X010056Y004706D01*
X010171Y004751D02*
X010216Y004796D01*
X010351Y004796D01*
X010351Y004841D02*
X010351Y004706D01*
X010216Y004706D01*
X010171Y004751D01*
X010216Y004887D02*
X010306Y004887D01*
X010351Y004841D01*
X010465Y004796D02*
X010555Y004887D01*
X010600Y004887D01*
X010711Y004841D02*
X010711Y004751D01*
X010756Y004706D01*
X010891Y004706D01*
X010891Y004661D02*
X010891Y004887D01*
X010756Y004887D01*
X010711Y004841D01*
X010465Y004887D02*
X010465Y004706D01*
X010801Y004616D02*
X010846Y004616D01*
X010891Y004661D01*
X011006Y004751D02*
X011006Y004841D01*
X011051Y004887D01*
X011141Y004887D01*
X011186Y004841D01*
X011186Y004796D01*
X011006Y004796D01*
X011006Y004751D02*
X011051Y004706D01*
X011141Y004706D01*
X011300Y004706D02*
X011300Y004887D01*
X011390Y004887D02*
X011300Y004796D01*
X011390Y004887D02*
X011435Y004887D01*
X009762Y004887D02*
X009626Y004887D01*
X009581Y004841D01*
X012085Y001172D02*
X012085Y001127D01*
X012085Y001037D02*
X012085Y000856D01*
X012040Y000856D02*
X012130Y000856D01*
X012237Y000856D02*
X012237Y001127D01*
X012372Y001127D01*
X012417Y001082D01*
X012417Y000991D01*
X012372Y000946D01*
X012237Y000946D01*
X012085Y001037D02*
X012040Y001037D01*
X011926Y000856D02*
X011746Y000856D01*
X011746Y001127D01*
X011631Y001037D02*
X011451Y000856D01*
X011337Y000856D02*
X011156Y000856D01*
X011246Y000856D02*
X011246Y001127D01*
X011156Y001037D01*
X011451Y001037D02*
X011631Y000856D01*
X011638Y000727D02*
X011548Y000727D01*
X011503Y000682D01*
X011396Y000727D02*
X011306Y000637D01*
X011306Y000546D01*
X011396Y000456D01*
X011503Y000501D02*
X011548Y000456D01*
X011638Y000456D01*
X011683Y000501D01*
X011683Y000546D01*
X011638Y000591D01*
X011593Y000591D01*
X011638Y000591D02*
X011683Y000637D01*
X011683Y000682D01*
X011638Y000727D01*
X011945Y000727D02*
X012125Y000727D01*
X012125Y000682D01*
X011945Y000501D01*
X011945Y000456D01*
X011842Y000456D02*
X011797Y000456D01*
X011797Y000501D01*
X011842Y000501D01*
X011842Y000456D01*
X012239Y000546D02*
X012329Y000456D01*
X012420Y000546D01*
X012420Y000727D01*
X012534Y000727D02*
X012624Y000637D01*
X012624Y000546D01*
X012534Y000456D01*
X012239Y000546D02*
X012239Y000727D01*
X012531Y000901D02*
X012576Y000856D01*
X012666Y000856D01*
X012712Y000901D01*
X012712Y000991D01*
X012666Y001037D01*
X012576Y001037D01*
X012531Y000991D01*
X012531Y000901D01*
X009560Y000757D02*
X009515Y000802D01*
X009425Y000802D01*
X009380Y000757D01*
X009265Y000757D02*
X009220Y000802D01*
X009130Y000802D01*
X009085Y000757D01*
X009085Y000576D01*
X009265Y000757D01*
X009265Y000576D01*
X009220Y000531D01*
X009130Y000531D01*
X009085Y000576D01*
X008970Y000576D02*
X008925Y000531D01*
X008835Y000531D01*
X008790Y000576D01*
X008970Y000757D01*
X008970Y000576D01*
X008790Y000576D02*
X008790Y000757D01*
X008835Y000802D01*
X008925Y000802D01*
X008970Y000757D01*
X008676Y000757D02*
X008496Y000576D01*
X008496Y000531D01*
X008381Y000531D02*
X008381Y000802D01*
X008496Y000802D02*
X008676Y000802D01*
X008676Y000757D01*
X008381Y000531D02*
X008201Y000802D01*
X008201Y000531D01*
X008087Y000531D02*
X007906Y000531D01*
X008087Y000712D01*
X008087Y000757D01*
X008041Y000802D01*
X007951Y000802D01*
X007906Y000757D01*
X009380Y000531D02*
X009560Y000712D01*
X009560Y000757D01*
X009560Y000531D02*
X009380Y000531D01*
D11*
X009233Y001256D02*
X008996Y001256D01*
X009233Y001256D02*
X009233Y001571D01*
X008366Y001256D02*
X008130Y001256D01*
X008130Y001571D01*
X008012Y003121D02*
X008350Y003121D01*
X007862Y003576D02*
X007862Y003787D01*
X008012Y004241D02*
X008350Y004241D01*
X008523Y005371D02*
X008523Y005680D01*
X008585Y005742D01*
X008738Y005618D02*
X008738Y005371D01*
X008738Y005495D02*
X008861Y005618D01*
X008923Y005618D01*
X009083Y005557D02*
X009145Y005618D01*
X009268Y005618D01*
X009330Y005557D01*
X009330Y005495D01*
X009083Y005495D01*
X009083Y005433D02*
X009083Y005557D01*
X009083Y005433D02*
X009145Y005371D01*
X009268Y005371D01*
X009497Y005433D02*
X009559Y005371D01*
X009682Y005371D01*
X009497Y005433D02*
X009497Y005557D01*
X009559Y005618D01*
X009682Y005618D01*
X009744Y005557D01*
X009744Y005495D01*
X009497Y005495D01*
X009912Y005618D02*
X010035Y005618D01*
X009973Y005680D02*
X009973Y005433D01*
X010035Y005371D01*
X010188Y005371D02*
X010188Y005618D01*
X010188Y005495D02*
X010311Y005618D01*
X010373Y005618D01*
X010533Y005557D02*
X010533Y005433D01*
X010595Y005371D01*
X010718Y005371D01*
X010780Y005433D01*
X010780Y005557D01*
X010718Y005618D01*
X010595Y005618D01*
X010533Y005557D01*
X010947Y005618D02*
X010947Y005371D01*
X011194Y005371D02*
X011194Y005557D01*
X011133Y005618D01*
X010947Y005618D01*
X011362Y005618D02*
X011423Y005618D01*
X011423Y005371D01*
X011362Y005371D02*
X011485Y005371D01*
X011638Y005433D02*
X011700Y005371D01*
X011885Y005371D01*
X011638Y005433D02*
X011638Y005557D01*
X011700Y005618D01*
X011885Y005618D01*
X012052Y005557D02*
X012114Y005495D01*
X012237Y005495D01*
X012299Y005433D01*
X012237Y005371D01*
X012052Y005371D01*
X012052Y005557D02*
X012114Y005618D01*
X012299Y005618D01*
X011423Y005742D02*
X011423Y005803D01*
X008585Y005557D02*
X008461Y005557D01*
X003981Y004402D02*
X003981Y004048D01*
X002996Y004677D02*
X002170Y004677D01*
X003981Y002315D02*
X003981Y001961D01*
X002996Y001685D02*
X002170Y001685D01*
D12*
X008591Y005081D02*
X012211Y005081D01*
X012247Y005084D01*
X012283Y005090D01*
X012318Y005100D01*
X012352Y005113D01*
X012384Y005130D01*
X012415Y005149D01*
X012443Y005171D01*
X012470Y005197D01*
X012493Y005224D01*
X012514Y005254D01*
X012532Y005285D01*
X012547Y005319D01*
X012558Y005353D01*
X012566Y005389D01*
X012570Y005425D01*
X012571Y005461D01*
X012571Y005591D01*
X012570Y005627D01*
X012566Y005663D01*
X012558Y005699D01*
X012547Y005733D01*
X012532Y005767D01*
X012514Y005798D01*
X012493Y005828D01*
X012470Y005855D01*
X012443Y005881D01*
X012415Y005903D01*
X012384Y005922D01*
X012352Y005939D01*
X012318Y005952D01*
X012283Y005962D01*
X012247Y005968D01*
X012211Y005971D01*
X008591Y005971D01*
X008554Y005968D01*
X008517Y005960D01*
X008482Y005949D01*
X008447Y005935D01*
X008415Y005917D01*
X008384Y005896D01*
X008355Y005873D01*
X008329Y005846D01*
X008305Y005817D01*
X008284Y005786D01*
X008267Y005753D01*
X008253Y005719D01*
X008242Y005683D01*
X008235Y005646D01*
X008231Y005609D01*
X008232Y005572D01*
X008231Y005571D02*
X008231Y005461D01*
X008232Y005425D01*
X008236Y005389D01*
X008244Y005353D01*
X008255Y005319D01*
X008270Y005285D01*
X008288Y005254D01*
X008309Y005224D01*
X008332Y005197D01*
X008359Y005171D01*
X008387Y005149D01*
X008418Y005130D01*
X008450Y005113D01*
X008484Y005100D01*
X008519Y005090D01*
X008555Y005084D01*
X008591Y005081D01*
D13*
X009508Y004182D02*
X009848Y004182D01*
X009697Y002352D02*
X009697Y002011D01*
X009526Y002182D02*
X009867Y002182D01*
D14*
X006331Y001408D02*
X006031Y001408D01*
X006181Y001268D01*
X006351Y001268D01*
X006331Y001408D02*
X006181Y001267D01*
X006181Y001268D02*
X006011Y001268D01*
X005539Y001268D02*
X005369Y001268D01*
X005219Y001408D01*
X005519Y001408D01*
X005369Y001267D01*
X005369Y001268D02*
X005199Y001268D01*
M02*
