G75*
G70*
%OFA0B0*%
%FSLAX24Y24*%
%IPPOS*%
%LPD*%
%AMOC8*
5,1,8,0,0,1.08239X$1,22.5*
%
%ADD10C,0.0120*%
%ADD11C,0.0050*%
%ADD12C,0.0080*%
%ADD13C,0.0090*%
%ADD14C,0.0070*%
D10*
X008590Y005080D02*
X012210Y005080D01*
X012246Y005083D01*
X012282Y005089D01*
X012317Y005099D01*
X012351Y005112D01*
X012383Y005129D01*
X012414Y005148D01*
X012442Y005170D01*
X012469Y005196D01*
X012492Y005223D01*
X012513Y005253D01*
X012531Y005284D01*
X012546Y005318D01*
X012557Y005352D01*
X012565Y005388D01*
X012569Y005424D01*
X012570Y005460D01*
X012570Y005590D01*
X012569Y005626D01*
X012565Y005662D01*
X012557Y005698D01*
X012546Y005732D01*
X012531Y005766D01*
X012513Y005797D01*
X012492Y005827D01*
X012469Y005854D01*
X012442Y005880D01*
X012414Y005902D01*
X012383Y005921D01*
X012351Y005938D01*
X012317Y005951D01*
X012282Y005961D01*
X012246Y005967D01*
X012210Y005970D01*
X008590Y005970D01*
X008590Y005969D02*
X008553Y005966D01*
X008516Y005958D01*
X008481Y005947D01*
X008446Y005933D01*
X008414Y005915D01*
X008383Y005894D01*
X008354Y005871D01*
X008328Y005844D01*
X008304Y005815D01*
X008283Y005784D01*
X008266Y005751D01*
X008252Y005717D01*
X008241Y005681D01*
X008234Y005644D01*
X008230Y005607D01*
X008231Y005570D01*
X008230Y005570D02*
X008230Y005460D01*
X008231Y005424D01*
X008235Y005388D01*
X008243Y005352D01*
X008254Y005318D01*
X008269Y005284D01*
X008287Y005253D01*
X008308Y005223D01*
X008331Y005196D01*
X008358Y005170D01*
X008386Y005148D01*
X008417Y005129D01*
X008449Y005112D01*
X008483Y005099D01*
X008518Y005089D01*
X008554Y005083D01*
X008590Y005080D01*
D11*
X002250Y000692D02*
X002205Y000738D01*
X002205Y000963D01*
X002385Y000963D02*
X002385Y000738D01*
X002340Y000692D01*
X002250Y000692D01*
X002500Y000738D02*
X002545Y000692D01*
X002635Y000692D01*
X002680Y000738D01*
X002680Y000783D01*
X002635Y000828D01*
X002545Y000828D01*
X002500Y000873D01*
X002500Y000918D01*
X002545Y000963D01*
X002635Y000963D01*
X002680Y000918D01*
X002794Y000963D02*
X002929Y000963D01*
X002974Y000918D01*
X002974Y000873D01*
X002929Y000828D01*
X002794Y000828D01*
X002929Y000828D02*
X002974Y000783D01*
X002974Y000738D01*
X002929Y000692D01*
X002794Y000692D01*
X002794Y000963D01*
X004821Y001087D02*
X005091Y001087D01*
X005091Y001267D01*
X004956Y001177D02*
X004956Y001087D01*
X004821Y001087D02*
X004821Y001267D01*
X004821Y001382D02*
X004821Y001517D01*
X004866Y001562D01*
X005046Y001562D01*
X005091Y001517D01*
X005091Y001382D01*
X004821Y001382D01*
X004911Y001676D02*
X004821Y001767D01*
X005091Y001767D01*
X005091Y001857D02*
X005091Y001676D01*
X005665Y001721D02*
X005710Y001676D01*
X005665Y001721D02*
X005665Y001812D01*
X005710Y001857D01*
X005755Y001857D01*
X005935Y001676D01*
X005935Y001857D01*
X005890Y001562D02*
X005710Y001562D01*
X005665Y001517D01*
X005665Y001382D01*
X005935Y001382D01*
X005935Y001517D01*
X005890Y001562D01*
X005935Y001267D02*
X005935Y001087D01*
X005665Y001087D01*
X005665Y001267D01*
X005800Y001177D02*
X005800Y001087D01*
X005935Y000973D02*
X005935Y000792D01*
X005665Y000792D01*
X005091Y000793D02*
X005091Y000973D01*
X005091Y000793D02*
X004821Y000793D01*
X007085Y001395D02*
X007175Y001305D01*
X007085Y001395D02*
X007355Y001395D01*
X007355Y001305D02*
X007355Y001485D01*
X007355Y001600D02*
X007310Y001600D01*
X007310Y001645D01*
X007355Y001645D01*
X007355Y001600D01*
X007310Y001747D02*
X007355Y001792D01*
X007355Y001882D01*
X007310Y001927D01*
X007265Y001927D01*
X007220Y001882D01*
X007220Y001837D01*
X007220Y001882D02*
X007175Y001927D01*
X007130Y001927D01*
X007085Y001882D01*
X007085Y001792D01*
X007130Y001747D01*
X007085Y002042D02*
X007355Y002042D01*
X007265Y002042D02*
X007175Y002177D01*
X007265Y002042D02*
X007355Y002177D01*
X007305Y002805D02*
X007305Y002895D01*
X007305Y002850D02*
X007035Y002850D01*
X007035Y002805D02*
X007035Y002895D01*
X007080Y003001D02*
X007260Y003001D01*
X007305Y003046D01*
X007305Y003137D01*
X007260Y003182D01*
X007305Y003296D02*
X007305Y003476D01*
X007305Y003386D02*
X007035Y003386D01*
X007125Y003296D01*
X007080Y003182D02*
X007035Y003137D01*
X007035Y003046D01*
X007080Y003001D01*
X006105Y003029D02*
X006015Y002894D01*
X005925Y003029D01*
X005835Y002894D02*
X006105Y002894D01*
X006060Y002780D02*
X005880Y002780D01*
X006060Y002600D01*
X006105Y002645D01*
X006105Y002735D01*
X006060Y002780D01*
X005880Y002780D02*
X005835Y002735D01*
X005835Y002645D01*
X005880Y002600D01*
X006060Y002600D01*
X006105Y002485D02*
X006105Y002305D01*
X006105Y002395D02*
X005835Y002395D01*
X005925Y002305D01*
X005005Y002455D02*
X005005Y002635D01*
X005005Y002545D02*
X004735Y002545D01*
X004825Y002455D01*
X004915Y002750D02*
X004825Y002885D01*
X004915Y002750D02*
X005005Y002885D01*
X005005Y002750D02*
X004735Y002750D01*
X007085Y004745D02*
X007175Y004655D01*
X007085Y004745D02*
X007355Y004745D01*
X007355Y004655D02*
X007355Y004835D01*
X007310Y004950D02*
X007355Y004995D01*
X007355Y005130D01*
X007175Y005130D01*
X007220Y005244D02*
X007220Y005334D01*
X007355Y005244D02*
X007085Y005244D01*
X007085Y005424D01*
X006942Y005380D02*
X006897Y005425D01*
X006807Y005425D01*
X006762Y005380D01*
X006762Y005200D01*
X006807Y005155D01*
X006897Y005155D01*
X006942Y005200D01*
X006558Y005155D02*
X006558Y005425D01*
X006468Y005425D02*
X006648Y005425D01*
X006353Y005380D02*
X006353Y005290D01*
X006308Y005245D01*
X006173Y005245D01*
X006173Y005155D02*
X006173Y005425D01*
X006308Y005425D01*
X006353Y005380D01*
X005764Y005335D02*
X005764Y005155D01*
X005764Y005290D02*
X005584Y005290D01*
X005584Y005335D02*
X005674Y005425D01*
X005764Y005335D01*
X005584Y005335D02*
X005584Y005155D01*
X005469Y005155D02*
X005469Y005290D01*
X005424Y005335D01*
X005379Y005290D01*
X005379Y005155D01*
X005289Y005155D02*
X005289Y005335D01*
X005334Y005335D01*
X005379Y005290D01*
X005174Y005200D02*
X005129Y005155D01*
X005039Y005155D01*
X004994Y005200D01*
X005174Y005380D01*
X005174Y005200D01*
X004994Y005200D02*
X004994Y005380D01*
X005039Y005425D01*
X005129Y005425D01*
X005174Y005380D01*
X004880Y005380D02*
X004700Y005200D01*
X004745Y005155D01*
X004835Y005155D01*
X004880Y005200D01*
X004880Y005380D01*
X004835Y005425D01*
X004745Y005425D01*
X004700Y005380D01*
X004700Y005200D01*
X004585Y005200D02*
X004540Y005155D01*
X004450Y005155D01*
X004405Y005200D01*
X004405Y005290D02*
X004495Y005335D01*
X004540Y005335D01*
X004585Y005290D01*
X004585Y005200D01*
X004405Y005290D02*
X004405Y005425D01*
X004585Y005425D01*
X004575Y005805D02*
X004440Y005805D01*
X004485Y005895D02*
X004440Y005940D01*
X004485Y005985D01*
X004620Y005985D01*
X004575Y005895D02*
X004485Y005895D01*
X004575Y005895D02*
X004620Y005850D01*
X004575Y005805D01*
X004735Y005805D02*
X004780Y005805D01*
X004780Y005850D01*
X004735Y005850D01*
X004735Y005805D01*
X004882Y005850D02*
X004927Y005805D01*
X005062Y005805D01*
X005177Y005850D02*
X005222Y005805D01*
X005312Y005805D01*
X005357Y005850D01*
X005357Y005940D01*
X005312Y005985D01*
X005222Y005985D01*
X005177Y005940D01*
X005177Y005850D01*
X004927Y005985D02*
X004882Y005940D01*
X004882Y005850D01*
X004927Y005985D02*
X005062Y005985D01*
X005471Y005985D02*
X005471Y005805D01*
X005561Y005805D02*
X005561Y005940D01*
X005606Y005985D01*
X005651Y005940D01*
X005651Y005805D01*
X005766Y005805D02*
X005946Y006075D01*
X006061Y005985D02*
X006061Y005850D01*
X006106Y005805D01*
X006241Y005805D01*
X006241Y005985D01*
X006355Y005940D02*
X006400Y005985D01*
X006535Y005985D01*
X006650Y005985D02*
X006785Y005985D01*
X006830Y005940D01*
X006830Y005850D01*
X006785Y005805D01*
X006650Y005805D01*
X006650Y006075D01*
X006944Y006075D02*
X006990Y006075D01*
X006990Y005805D01*
X007035Y005805D02*
X006944Y005805D01*
X007141Y005805D02*
X007231Y005805D01*
X007186Y005805D02*
X007186Y005985D01*
X007141Y005985D01*
X007186Y006075D02*
X007186Y006120D01*
X007337Y005985D02*
X007472Y005985D01*
X007517Y005940D01*
X007517Y005850D01*
X007472Y005805D01*
X007337Y005805D01*
X007337Y005715D02*
X007337Y005985D01*
X007632Y005940D02*
X007632Y005850D01*
X007677Y005805D01*
X007767Y005805D01*
X007812Y005850D01*
X007812Y005940D01*
X007767Y005985D01*
X007677Y005985D01*
X007632Y005940D01*
X006535Y005850D02*
X006490Y005895D01*
X006400Y005895D01*
X006355Y005940D01*
X006355Y005805D02*
X006490Y005805D01*
X006535Y005850D01*
X005561Y005940D02*
X005516Y005985D01*
X005471Y005985D01*
X004325Y005985D02*
X004190Y005985D01*
X004145Y005940D01*
X004145Y005850D01*
X004190Y005805D01*
X004325Y005805D01*
X004039Y005805D02*
X003949Y005805D01*
X003994Y005805D02*
X003994Y005985D01*
X003949Y005985D01*
X003994Y006075D02*
X003994Y006120D01*
X003834Y005940D02*
X003789Y005985D01*
X003654Y005985D01*
X003654Y005805D01*
X003540Y005850D02*
X003540Y005940D01*
X003495Y005985D01*
X003405Y005985D01*
X003360Y005940D01*
X003360Y005850D01*
X003405Y005805D01*
X003495Y005805D01*
X003540Y005850D01*
X003834Y005805D02*
X003834Y005940D01*
X003249Y005985D02*
X003204Y005985D01*
X003114Y005895D01*
X003114Y005805D02*
X003114Y005985D01*
X003008Y005985D02*
X002918Y005985D01*
X002963Y006030D02*
X002963Y005850D01*
X003008Y005805D01*
X002803Y005895D02*
X002803Y005940D01*
X002758Y005985D01*
X002668Y005985D01*
X002623Y005940D01*
X002623Y005850D01*
X002668Y005805D01*
X002758Y005805D01*
X002803Y005895D02*
X002623Y005895D01*
X002508Y005895D02*
X002508Y005940D01*
X002463Y005985D01*
X002373Y005985D01*
X002328Y005940D01*
X002328Y005850D01*
X002373Y005805D01*
X002463Y005805D01*
X002508Y005895D02*
X002328Y005895D01*
X002218Y005985D02*
X002173Y005985D01*
X002083Y005895D01*
X002083Y005805D02*
X002083Y005985D01*
X001976Y005940D02*
X001886Y005940D01*
X001931Y006030D02*
X001976Y006075D01*
X001931Y006030D02*
X001931Y005805D01*
X001784Y005805D02*
X001739Y005805D01*
X001739Y005850D01*
X001784Y005850D01*
X001784Y005805D01*
X001624Y005850D02*
X001624Y005985D01*
X001444Y005985D02*
X001444Y005850D01*
X001489Y005805D01*
X001534Y005850D01*
X001579Y005805D01*
X001624Y005850D01*
X001330Y005850D02*
X001330Y005985D01*
X001150Y005985D02*
X001150Y005850D01*
X001195Y005805D01*
X001240Y005850D01*
X001285Y005805D01*
X001330Y005850D01*
X001035Y005850D02*
X001035Y005985D01*
X000855Y005985D02*
X000855Y005850D01*
X000900Y005805D01*
X000945Y005850D01*
X000990Y005805D01*
X001035Y005850D01*
X007175Y004950D02*
X007310Y004950D01*
X008205Y004975D02*
X008205Y004705D01*
X008385Y004705D01*
X008500Y004705D02*
X008590Y004705D01*
X008545Y004705D02*
X008545Y004885D01*
X008500Y004885D01*
X008545Y004975D02*
X008545Y005020D01*
X008696Y004975D02*
X008831Y004975D01*
X008876Y004930D01*
X008876Y004840D01*
X008831Y004795D01*
X008696Y004795D01*
X008696Y004705D02*
X008696Y004975D01*
X008991Y004840D02*
X008991Y004750D01*
X009036Y004705D01*
X009126Y004705D01*
X009171Y004750D01*
X009171Y004840D01*
X009126Y004885D01*
X009036Y004885D01*
X008991Y004840D01*
X009580Y004840D02*
X009580Y004750D01*
X009625Y004705D01*
X009760Y004705D01*
X009875Y004705D02*
X009875Y004975D01*
X009920Y004885D02*
X009875Y004840D01*
X009920Y004885D02*
X010010Y004885D01*
X010055Y004840D01*
X010055Y004705D01*
X010169Y004750D02*
X010214Y004795D01*
X010349Y004795D01*
X010349Y004840D02*
X010349Y004705D01*
X010214Y004705D01*
X010169Y004750D01*
X010214Y004885D02*
X010304Y004885D01*
X010349Y004840D01*
X010464Y004795D02*
X010554Y004885D01*
X010599Y004885D01*
X010710Y004840D02*
X010710Y004750D01*
X010755Y004705D01*
X010890Y004705D01*
X010890Y004660D02*
X010890Y004885D01*
X010755Y004885D01*
X010710Y004840D01*
X010464Y004885D02*
X010464Y004705D01*
X010800Y004615D02*
X010845Y004615D01*
X010890Y004660D01*
X011004Y004750D02*
X011004Y004840D01*
X011049Y004885D01*
X011139Y004885D01*
X011184Y004840D01*
X011184Y004795D01*
X011004Y004795D01*
X011004Y004750D02*
X011049Y004705D01*
X011139Y004705D01*
X011299Y004705D02*
X011299Y004885D01*
X011299Y004795D02*
X011389Y004885D01*
X011434Y004885D01*
X009760Y004885D02*
X009625Y004885D01*
X009580Y004840D01*
X012084Y001170D02*
X012084Y001125D01*
X012084Y001035D02*
X012084Y000855D01*
X012039Y000855D02*
X012129Y000855D01*
X012235Y000855D02*
X012235Y001125D01*
X012371Y001125D01*
X012416Y001080D01*
X012416Y000990D01*
X012371Y000945D01*
X012235Y000945D01*
X012084Y001035D02*
X012039Y001035D01*
X011924Y000855D02*
X011744Y000855D01*
X011744Y001125D01*
X011630Y001035D02*
X011450Y000855D01*
X011335Y000855D02*
X011155Y000855D01*
X011245Y000855D02*
X011245Y001125D01*
X011155Y001035D01*
X011450Y001035D02*
X011630Y000855D01*
X011637Y000725D02*
X011546Y000725D01*
X011501Y000680D01*
X011395Y000725D02*
X011305Y000635D01*
X011305Y000545D01*
X011395Y000455D01*
X011501Y000500D02*
X011546Y000455D01*
X011637Y000455D01*
X011682Y000500D01*
X011682Y000545D01*
X011637Y000590D01*
X011592Y000590D01*
X011637Y000590D02*
X011682Y000635D01*
X011682Y000680D01*
X011637Y000725D01*
X011943Y000725D02*
X012124Y000725D01*
X012124Y000680D01*
X011943Y000500D01*
X011943Y000455D01*
X011841Y000455D02*
X011796Y000455D01*
X011796Y000500D01*
X011841Y000500D01*
X011841Y000455D01*
X012238Y000545D02*
X012328Y000455D01*
X012418Y000545D01*
X012418Y000725D01*
X012533Y000725D02*
X012623Y000635D01*
X012623Y000545D01*
X012533Y000455D01*
X012238Y000545D02*
X012238Y000725D01*
X012530Y000900D02*
X012575Y000855D01*
X012665Y000855D01*
X012710Y000900D01*
X012710Y000990D01*
X012665Y001035D01*
X012575Y001035D01*
X012530Y000990D01*
X012530Y000900D01*
X009558Y000755D02*
X009513Y000800D01*
X009423Y000800D01*
X009378Y000755D01*
X009264Y000755D02*
X009219Y000800D01*
X009129Y000800D01*
X009084Y000755D01*
X009084Y000575D01*
X009264Y000755D01*
X009264Y000575D01*
X009219Y000530D01*
X009129Y000530D01*
X009084Y000575D01*
X008969Y000575D02*
X008924Y000530D01*
X008834Y000530D01*
X008789Y000575D01*
X008969Y000755D01*
X008969Y000575D01*
X008789Y000575D02*
X008789Y000755D01*
X008834Y000800D01*
X008924Y000800D01*
X008969Y000755D01*
X008674Y000755D02*
X008494Y000575D01*
X008494Y000530D01*
X008380Y000530D02*
X008380Y000800D01*
X008494Y000800D02*
X008674Y000800D01*
X008674Y000755D01*
X008380Y000530D02*
X008200Y000800D01*
X008200Y000530D01*
X008085Y000530D02*
X007905Y000530D01*
X008085Y000710D01*
X008085Y000755D01*
X008040Y000800D01*
X007950Y000800D01*
X007905Y000755D01*
X009378Y000530D02*
X009558Y000710D01*
X009558Y000755D01*
X009558Y000530D02*
X009378Y000530D01*
D12*
X009231Y001254D02*
X008995Y001254D01*
X009231Y001254D02*
X009231Y001569D01*
X008365Y001254D02*
X008129Y001254D01*
X008129Y001569D01*
X008011Y003120D02*
X008349Y003120D01*
X007861Y003574D02*
X007861Y003786D01*
X008011Y004240D02*
X008349Y004240D01*
X008522Y005370D02*
X008522Y005679D01*
X008583Y005740D01*
X008736Y005617D02*
X008736Y005370D01*
X008736Y005493D02*
X008860Y005617D01*
X008921Y005617D01*
X009082Y005555D02*
X009143Y005617D01*
X009267Y005617D01*
X009328Y005555D01*
X009328Y005493D01*
X009082Y005493D01*
X009082Y005432D02*
X009082Y005555D01*
X009082Y005432D02*
X009143Y005370D01*
X009267Y005370D01*
X009496Y005432D02*
X009558Y005370D01*
X009681Y005370D01*
X009496Y005432D02*
X009496Y005555D01*
X009558Y005617D01*
X009681Y005617D01*
X009743Y005555D01*
X009743Y005493D01*
X009496Y005493D01*
X009910Y005617D02*
X010034Y005617D01*
X009972Y005679D02*
X009972Y005432D01*
X010034Y005370D01*
X010186Y005370D02*
X010186Y005617D01*
X010186Y005493D02*
X010310Y005617D01*
X010372Y005617D01*
X010532Y005555D02*
X010532Y005432D01*
X010593Y005370D01*
X010717Y005370D01*
X010779Y005432D01*
X010779Y005555D01*
X010717Y005617D01*
X010593Y005617D01*
X010532Y005555D01*
X010946Y005617D02*
X010946Y005370D01*
X011193Y005370D02*
X011193Y005555D01*
X011131Y005617D01*
X010946Y005617D01*
X011360Y005617D02*
X011422Y005617D01*
X011422Y005370D01*
X011360Y005370D02*
X011484Y005370D01*
X011637Y005432D02*
X011698Y005370D01*
X011884Y005370D01*
X011637Y005432D02*
X011637Y005555D01*
X011698Y005617D01*
X011884Y005617D01*
X012051Y005555D02*
X012113Y005493D01*
X012236Y005493D01*
X012298Y005432D01*
X012236Y005370D01*
X012051Y005370D01*
X012051Y005555D02*
X012113Y005617D01*
X012298Y005617D01*
X011422Y005740D02*
X011422Y005802D01*
X008583Y005555D02*
X008460Y005555D01*
X003979Y004400D02*
X003979Y004046D01*
X002995Y004676D02*
X002168Y004676D01*
X003979Y002314D02*
X003979Y001960D01*
X002995Y001684D02*
X002168Y001684D01*
D13*
X009525Y002180D02*
X009865Y002180D01*
X009695Y002350D02*
X009695Y002010D01*
X009847Y004180D02*
X009506Y004180D01*
D14*
X006330Y001406D02*
X006030Y001406D01*
X006180Y001266D01*
X006350Y001266D01*
X006330Y001406D02*
X006180Y001265D01*
X006180Y001266D02*
X006010Y001266D01*
X005538Y001266D02*
X005368Y001266D01*
X005218Y001406D01*
X005518Y001406D01*
X005368Y001265D01*
X005368Y001266D02*
X005198Y001266D01*
M02*
