G75*
G70*
%OFA0B0*%
%FSLAX24Y24*%
%IPPOS*%
%LPD*%
%AMOC8*
5,1,8,0,0,1.08239X$1,22.5*
%
%ADD10C,0.0160*%
%ADD11C,0.0317*%
%ADD12C,0.0180*%
D10*
X001018Y000499D02*
X012445Y000499D01*
X012517Y000522D02*
X012297Y000450D01*
X012181Y000441D01*
X012154Y000441D01*
X012130Y000441D01*
X001206Y000441D01*
X001103Y000463D01*
X000885Y000555D01*
X000699Y000699D01*
X000555Y000885D01*
X000463Y001103D01*
X000441Y001206D01*
X000441Y005157D01*
X000463Y005260D01*
X000555Y005477D01*
X000699Y005664D01*
X000885Y005808D01*
X001103Y005900D01*
X001206Y005921D01*
X012181Y005921D01*
X012297Y005912D01*
X012517Y005841D01*
X012705Y005705D01*
X012841Y005517D01*
X012912Y005297D01*
X012921Y005181D01*
X012921Y005142D01*
X012921Y005130D01*
X012921Y001181D01*
X012912Y001066D01*
X012841Y000845D01*
X012705Y000658D01*
X012517Y000522D01*
X012703Y000657D02*
X000752Y000657D01*
X000608Y000816D02*
X007268Y000816D01*
X007273Y000811D02*
X007397Y000760D01*
X007532Y000760D01*
X007656Y000811D01*
X007752Y000906D01*
X007803Y001031D01*
X007803Y001166D01*
X007752Y001290D01*
X007656Y001385D01*
X007532Y001437D01*
X007397Y001437D01*
X007273Y001385D01*
X007255Y001368D01*
X004876Y001368D01*
X004870Y001374D01*
X004870Y001399D01*
X004819Y001523D01*
X004723Y001619D01*
X004599Y001670D01*
X004464Y001670D01*
X004340Y001619D01*
X004244Y001523D01*
X004193Y001399D01*
X004193Y001264D01*
X004244Y001140D01*
X004340Y001044D01*
X004464Y000993D01*
X004488Y000993D01*
X004612Y000869D01*
X004711Y000828D01*
X004818Y000828D01*
X007255Y000828D01*
X007273Y000811D01*
X007661Y000816D02*
X012819Y000816D01*
X012883Y000974D02*
X007780Y000974D01*
X007803Y001133D02*
X012918Y001133D01*
X012921Y001291D02*
X007751Y001291D01*
X007239Y002060D02*
X007114Y002008D01*
X006979Y002008D01*
X006855Y002060D01*
X006760Y002155D01*
X006708Y002279D01*
X006708Y002414D01*
X006760Y002539D01*
X006855Y002634D01*
X006979Y002685D01*
X007114Y002685D01*
X007239Y002634D01*
X007256Y002617D01*
X008235Y002617D01*
X008343Y002724D01*
X008343Y002749D01*
X008394Y002873D01*
X008490Y002969D01*
X008614Y003020D01*
X008749Y003020D01*
X008873Y002969D01*
X008969Y002873D01*
X009020Y002749D01*
X009020Y002614D01*
X008969Y002490D01*
X008873Y002394D01*
X008749Y002343D01*
X008724Y002343D01*
X008500Y002118D01*
X008400Y002077D01*
X008293Y002077D01*
X007256Y002077D01*
X007239Y002060D01*
X006831Y002084D02*
X003059Y002084D01*
X003052Y002068D02*
X003119Y002228D01*
X003119Y002402D01*
X003052Y002563D01*
X002929Y002686D01*
X002768Y002752D01*
X002594Y002752D01*
X002434Y002686D01*
X002311Y002563D01*
X002244Y002402D01*
X002244Y002228D01*
X002311Y002068D01*
X002434Y001945D01*
X002594Y001878D01*
X002768Y001878D01*
X002929Y001945D01*
X003052Y002068D01*
X002883Y001925D02*
X012921Y001925D01*
X012921Y002084D02*
X008418Y002084D01*
X008624Y002242D02*
X012921Y002242D01*
X012921Y002401D02*
X008880Y002401D01*
X008998Y002560D02*
X012921Y002560D01*
X012921Y002718D02*
X009020Y002718D01*
X008965Y002877D02*
X012921Y002877D01*
X012921Y003035D02*
X000441Y003035D01*
X000441Y002877D02*
X008398Y002877D01*
X008336Y002718D02*
X002851Y002718D01*
X003053Y002560D02*
X006781Y002560D01*
X006708Y002401D02*
X003119Y002401D01*
X003119Y002242D02*
X006723Y002242D01*
X004849Y001450D02*
X012921Y001450D01*
X012921Y001608D02*
X004734Y001608D01*
X004329Y001608D02*
X000441Y001608D01*
X000441Y001767D02*
X012921Y001767D01*
X012921Y003194D02*
X000441Y003194D01*
X000441Y003352D02*
X012921Y003352D01*
X012921Y003511D02*
X000441Y003511D01*
X000441Y003669D02*
X002452Y003669D01*
X002434Y003677D02*
X002594Y003610D01*
X002768Y003610D01*
X002929Y003677D01*
X003052Y003800D01*
X003119Y003961D01*
X003119Y004135D01*
X003052Y004295D01*
X002929Y004418D01*
X002768Y004485D01*
X002594Y004485D01*
X002434Y004418D01*
X002311Y004295D01*
X002244Y004135D01*
X002244Y003961D01*
X002311Y003800D01*
X002434Y003677D01*
X002299Y003828D02*
X000441Y003828D01*
X000441Y003986D02*
X002244Y003986D01*
X002249Y004145D02*
X000441Y004145D01*
X000441Y004304D02*
X002319Y004304D01*
X002540Y004462D02*
X000441Y004462D01*
X000441Y004621D02*
X012921Y004621D01*
X012921Y004462D02*
X002823Y004462D01*
X003044Y004304D02*
X012921Y004304D01*
X012921Y004145D02*
X003114Y004145D01*
X003119Y003986D02*
X012921Y003986D01*
X012921Y003828D02*
X003064Y003828D01*
X002911Y003669D02*
X012921Y003669D01*
X012921Y004779D02*
X000441Y004779D01*
X000441Y004938D02*
X012921Y004938D01*
X012921Y005096D02*
X000441Y005096D01*
X000462Y005255D02*
X012916Y005255D01*
X012875Y005413D02*
X000528Y005413D01*
X000627Y005572D02*
X012801Y005572D01*
X012669Y005730D02*
X000784Y005730D01*
X001077Y005889D02*
X012369Y005889D01*
X004214Y001450D02*
X000441Y001450D01*
X000441Y001291D02*
X004193Y001291D01*
X004251Y001133D02*
X000457Y001133D01*
X000517Y000974D02*
X004507Y000974D01*
X002480Y001925D02*
X000441Y001925D01*
X000441Y002084D02*
X002304Y002084D01*
X002244Y002242D02*
X000441Y002242D01*
X000441Y002401D02*
X002244Y002401D01*
X002309Y002560D02*
X000441Y002560D01*
X000441Y002718D02*
X002512Y002718D01*
D11*
X004531Y001331D03*
X007047Y002347D03*
X008181Y002831D03*
X008681Y002681D03*
X008181Y003681D03*
X007631Y003681D03*
X007181Y003681D03*
X007119Y004181D03*
X008181Y004481D03*
X008550Y004481D03*
X009306Y004056D03*
X007464Y001098D03*
D12*
X004764Y001098D01*
X004531Y001331D01*
X007047Y002347D02*
X008347Y002347D01*
X008681Y002681D01*
M02*
