G75*
G70*
%OFA0B0*%
%FSLAX24Y24*%
%IPPOS*%
%LPD*%
%AMOC8*
5,1,8,0,0,1.08239X$1,22.5*
%
%ADD10C,0.0120*%
%ADD11C,0.0080*%
%ADD12C,0.0070*%
D10*
X008900Y004780D02*
X012520Y004780D01*
X012556Y004783D01*
X012592Y004789D01*
X012627Y004799D01*
X012661Y004812D01*
X012693Y004829D01*
X012724Y004848D01*
X012752Y004870D01*
X012779Y004896D01*
X012802Y004923D01*
X012823Y004953D01*
X012841Y004984D01*
X012856Y005018D01*
X012867Y005052D01*
X012875Y005088D01*
X012879Y005124D01*
X012880Y005160D01*
X012880Y005270D01*
X012879Y005270D02*
X012880Y005307D01*
X012876Y005344D01*
X012869Y005381D01*
X012858Y005417D01*
X012844Y005451D01*
X012827Y005484D01*
X012806Y005515D01*
X012782Y005544D01*
X012756Y005571D01*
X012727Y005594D01*
X012696Y005615D01*
X012664Y005633D01*
X012629Y005647D01*
X012594Y005658D01*
X012557Y005666D01*
X012520Y005669D01*
X012520Y005670D02*
X008900Y005670D01*
X008864Y005667D01*
X008828Y005661D01*
X008793Y005651D01*
X008759Y005638D01*
X008727Y005621D01*
X008696Y005602D01*
X008668Y005580D01*
X008641Y005554D01*
X008618Y005527D01*
X008597Y005497D01*
X008579Y005466D01*
X008564Y005432D01*
X008553Y005398D01*
X008545Y005362D01*
X008541Y005326D01*
X008540Y005290D01*
X008540Y005160D01*
X008541Y005124D01*
X008545Y005088D01*
X008553Y005052D01*
X008564Y005018D01*
X008579Y004984D01*
X008597Y004953D01*
X008618Y004923D01*
X008641Y004896D01*
X008668Y004870D01*
X008696Y004848D01*
X008727Y004829D01*
X008759Y004812D01*
X008793Y004799D01*
X008828Y004789D01*
X008864Y004783D01*
X008900Y004780D01*
D11*
X003524Y001967D02*
X003524Y001597D01*
X003524Y001720D02*
X003339Y001720D01*
X003277Y001782D01*
X003277Y001905D01*
X003339Y001967D01*
X003524Y001967D01*
X003739Y001967D02*
X003739Y001720D01*
X003800Y001720D02*
X003677Y001720D01*
X003953Y001720D02*
X004077Y001720D01*
X004015Y001720D02*
X004015Y002090D01*
X004077Y002090D01*
X004244Y001905D02*
X004306Y001967D01*
X004491Y001967D01*
X004659Y001967D02*
X004844Y001967D01*
X004905Y001905D01*
X004844Y001843D01*
X004720Y001843D01*
X004659Y001782D01*
X004720Y001720D01*
X004905Y001720D01*
X005073Y001720D02*
X005073Y001967D01*
X005320Y001967D02*
X005320Y001782D01*
X005258Y001720D01*
X005073Y001720D01*
X004491Y001720D02*
X004306Y001720D01*
X004244Y001782D01*
X004244Y001905D01*
X004491Y002090D02*
X004491Y001720D01*
X003800Y001967D02*
X003739Y001967D01*
X003739Y002090D02*
X003739Y002152D01*
X003110Y001905D02*
X003110Y001782D01*
X003048Y001720D01*
X002925Y001720D01*
X002863Y001782D01*
X002863Y001905D01*
X002925Y001967D01*
X003048Y001967D01*
X003110Y001905D01*
X005487Y002090D02*
X005734Y001720D01*
X005902Y001720D02*
X005902Y001905D01*
X005963Y001967D01*
X006025Y001905D01*
X006025Y001720D01*
X006148Y001720D02*
X006148Y001967D01*
X006087Y001967D01*
X006025Y001905D01*
X006316Y001905D02*
X006316Y001782D01*
X006378Y001720D01*
X006501Y001720D01*
X006563Y001782D01*
X006563Y001905D01*
X006501Y001967D01*
X006378Y001967D01*
X006316Y001905D01*
X006730Y001967D02*
X006915Y001967D01*
X006977Y001905D01*
X006977Y001782D01*
X006915Y001720D01*
X006730Y001720D01*
X007123Y001720D02*
X007184Y001720D01*
X007184Y001782D01*
X007123Y001782D01*
X007123Y001720D01*
X007352Y001782D02*
X007414Y001720D01*
X007599Y001720D01*
X007537Y001843D02*
X007414Y001843D01*
X007352Y001782D01*
X007537Y001843D02*
X007599Y001905D01*
X007537Y001967D01*
X007352Y001967D01*
X007766Y001967D02*
X007951Y001967D01*
X008013Y001905D01*
X008013Y001782D01*
X007951Y001720D01*
X007766Y001720D01*
X008166Y001720D02*
X008289Y001720D01*
X008228Y001720D02*
X008228Y001967D01*
X008289Y001967D01*
X008457Y001905D02*
X008457Y001720D01*
X008457Y001905D02*
X008518Y001967D01*
X008704Y001967D01*
X008704Y001720D01*
X008871Y001782D02*
X008871Y001905D01*
X008933Y001967D01*
X009056Y001967D01*
X009118Y001905D01*
X009118Y001782D01*
X009056Y001720D01*
X008933Y001720D01*
X008871Y001782D01*
X009278Y001967D02*
X009340Y001967D01*
X009463Y001843D01*
X009463Y001720D02*
X009463Y001967D01*
X009616Y001967D02*
X009740Y001967D01*
X009678Y002029D02*
X009678Y001782D01*
X009616Y001720D01*
X009907Y001843D02*
X010154Y001843D01*
X010154Y001782D02*
X010154Y001905D01*
X010092Y001967D01*
X009969Y001967D01*
X009907Y001905D01*
X009907Y001843D01*
X009969Y001720D02*
X010092Y001720D01*
X010154Y001782D01*
X010321Y001843D02*
X010321Y001905D01*
X010383Y001967D01*
X010507Y001967D01*
X010568Y001905D01*
X010568Y001782D01*
X010507Y001720D01*
X010383Y001720D01*
X010321Y001843D02*
X010568Y001843D01*
X010728Y001967D02*
X010790Y001967D01*
X010914Y001843D01*
X010914Y001720D02*
X010914Y001967D01*
X011066Y001905D02*
X011190Y001905D01*
X011335Y001782D02*
X011335Y001720D01*
X011397Y001720D01*
X011397Y001782D01*
X011335Y001782D01*
X011128Y001720D02*
X011128Y002029D01*
X011066Y002090D01*
X011564Y001967D02*
X011564Y001782D01*
X011626Y001720D01*
X011688Y001782D01*
X011750Y001720D01*
X011811Y001782D01*
X011811Y001967D01*
X011979Y001967D02*
X011979Y001782D01*
X012040Y001720D01*
X012102Y001782D01*
X012164Y001720D01*
X012226Y001782D01*
X012226Y001967D01*
X012393Y001967D02*
X012393Y001782D01*
X012455Y001720D01*
X012517Y001782D01*
X012578Y001720D01*
X012640Y001782D01*
X012640Y001967D01*
X012578Y001190D02*
X012455Y001190D01*
X012393Y001129D01*
X012226Y001190D02*
X012226Y000820D01*
X012393Y000882D02*
X012455Y000820D01*
X012578Y000820D01*
X012640Y000882D01*
X012578Y001005D02*
X012455Y001005D01*
X012393Y000943D01*
X012393Y000882D01*
X012226Y000943D02*
X011979Y001190D01*
X011811Y001190D02*
X011811Y000882D01*
X011750Y000820D01*
X011626Y000820D01*
X011564Y000882D01*
X011564Y001190D01*
X011397Y001067D02*
X011335Y001067D01*
X011335Y001005D01*
X011397Y001005D01*
X011397Y001067D01*
X011397Y000882D02*
X011335Y000882D01*
X011335Y000820D01*
X011397Y000820D01*
X011397Y000882D01*
X011979Y000820D02*
X012164Y001005D01*
X012578Y001005D02*
X012640Y001067D01*
X012640Y001129D01*
X012578Y001190D01*
X010775Y001190D02*
X010775Y000882D01*
X010714Y000820D01*
X010590Y000820D01*
X010529Y000882D01*
X010529Y001190D01*
X010361Y001129D02*
X010361Y001067D01*
X010299Y001005D01*
X010176Y001005D01*
X010114Y000943D01*
X010114Y000882D01*
X010176Y000820D01*
X010299Y000820D01*
X010361Y000882D01*
X009947Y000820D02*
X009762Y000820D01*
X009700Y000882D01*
X009700Y000943D01*
X009762Y001005D01*
X009947Y001005D01*
X009762Y001005D02*
X009700Y001067D01*
X009700Y001129D01*
X009762Y001190D01*
X009947Y001190D01*
X009947Y000820D01*
X009532Y000820D02*
X009285Y000820D01*
X009118Y000820D02*
X008995Y000820D01*
X009056Y000820D02*
X009056Y001190D01*
X008995Y001190D02*
X009118Y001190D01*
X008842Y001190D02*
X008657Y001190D01*
X008595Y001129D01*
X008595Y001005D01*
X008657Y000943D01*
X008842Y000943D01*
X008842Y000820D02*
X008842Y001190D01*
X008427Y001129D02*
X008427Y000882D01*
X008366Y000820D01*
X008242Y000820D01*
X008181Y000882D01*
X008181Y001129D01*
X008242Y001190D01*
X008366Y001190D01*
X008427Y001129D01*
X009532Y001190D02*
X009532Y000820D01*
X010114Y001129D02*
X010176Y001190D01*
X010299Y001190D01*
X010361Y001129D01*
X008228Y002090D02*
X008228Y002152D01*
X008874Y005070D02*
X008812Y005132D01*
X008874Y005193D01*
X008997Y005193D01*
X009059Y005255D01*
X008997Y005317D01*
X008812Y005317D01*
X008874Y005070D02*
X009059Y005070D01*
X009226Y005070D02*
X009412Y005070D01*
X009473Y005132D01*
X009473Y005255D01*
X009412Y005317D01*
X009226Y005317D01*
X009688Y005317D02*
X009688Y005070D01*
X009750Y005070D02*
X009626Y005070D01*
X009917Y005070D02*
X009917Y005255D01*
X009979Y005317D01*
X010164Y005317D01*
X010164Y005070D01*
X010331Y005132D02*
X010331Y005255D01*
X010393Y005317D01*
X010517Y005317D01*
X010578Y005255D01*
X010578Y005132D01*
X010517Y005070D01*
X010393Y005070D01*
X010331Y005132D01*
X010738Y005317D02*
X010800Y005317D01*
X010924Y005193D01*
X010924Y005070D02*
X010924Y005317D01*
X011076Y005317D02*
X011200Y005317D01*
X011138Y005379D02*
X011138Y005132D01*
X011076Y005070D01*
X011367Y005193D02*
X011367Y005255D01*
X011429Y005317D01*
X011552Y005317D01*
X011614Y005255D01*
X011614Y005132D01*
X011552Y005070D01*
X011429Y005070D01*
X011367Y005193D02*
X011614Y005193D01*
X011782Y005193D02*
X012028Y005193D01*
X012028Y005132D02*
X012028Y005255D01*
X011967Y005317D01*
X011843Y005317D01*
X011782Y005255D01*
X011782Y005193D01*
X011843Y005070D02*
X011967Y005070D01*
X012028Y005132D01*
X012250Y005317D02*
X012374Y005193D01*
X012527Y005255D02*
X012650Y005255D01*
X012588Y005379D02*
X012527Y005440D01*
X012588Y005379D02*
X012588Y005070D01*
X012374Y005070D02*
X012374Y005317D01*
X012250Y005317D02*
X012189Y005317D01*
X009750Y005317D02*
X009688Y005317D01*
X009688Y005440D02*
X009688Y005502D01*
D12*
X010605Y003485D02*
X010605Y003425D01*
X010605Y003305D02*
X010605Y003065D01*
X010665Y003065D02*
X010545Y003065D01*
X010401Y003065D02*
X010401Y003425D01*
X010221Y003425D01*
X010161Y003365D01*
X010161Y003245D01*
X010221Y003185D01*
X010401Y003185D01*
X010605Y003305D02*
X010665Y003305D01*
X010821Y003065D02*
X011061Y003065D01*
X011061Y003425D01*
X011613Y003365D02*
X011613Y003305D01*
X011673Y003245D01*
X011853Y003245D01*
X012009Y003185D02*
X012009Y003125D01*
X012069Y003065D01*
X012189Y003065D01*
X012249Y003125D01*
X012405Y003125D02*
X012405Y003425D01*
X012249Y003365D02*
X012249Y003305D01*
X012189Y003245D01*
X012069Y003245D01*
X012009Y003185D01*
X012009Y003365D02*
X012069Y003425D01*
X012189Y003425D01*
X012249Y003365D01*
X012405Y003125D02*
X012465Y003065D01*
X012585Y003065D01*
X012645Y003125D01*
X012645Y003425D01*
X011853Y003425D02*
X011853Y003065D01*
X011673Y003065D01*
X011613Y003125D01*
X011613Y003185D01*
X011673Y003245D01*
X011613Y003365D02*
X011673Y003425D01*
X011853Y003425D01*
X010005Y003245D02*
X010005Y003125D01*
X009945Y003065D01*
X009825Y003065D01*
X009765Y003125D01*
X009765Y003245D01*
X009825Y003305D01*
X009945Y003305D01*
X010005Y003245D01*
X009214Y003245D02*
X009214Y003125D01*
X009153Y003065D01*
X008973Y003065D01*
X008818Y003125D02*
X008818Y003245D01*
X008758Y003305D01*
X008637Y003305D01*
X008577Y003245D01*
X008577Y003185D01*
X008818Y003185D01*
X008818Y003125D02*
X008758Y003065D01*
X008637Y003065D01*
X008422Y003065D02*
X008302Y003065D01*
X008362Y003065D02*
X008362Y003425D01*
X008422Y003425D01*
X008158Y003425D02*
X008098Y003425D01*
X008098Y003065D01*
X008158Y003065D02*
X008038Y003065D01*
X007498Y003125D02*
X007438Y003065D01*
X007258Y003065D01*
X007102Y003065D02*
X007102Y003425D01*
X007042Y003305D02*
X006922Y003305D01*
X006862Y003245D01*
X006862Y003065D01*
X006706Y003125D02*
X006646Y003185D01*
X006466Y003185D01*
X006466Y003245D02*
X006466Y003065D01*
X006646Y003065D01*
X006706Y003125D01*
X006646Y003305D02*
X006526Y003305D01*
X006466Y003245D01*
X006310Y003185D02*
X006190Y003305D01*
X006130Y003305D01*
X005980Y003245D02*
X005980Y003125D01*
X005920Y003065D01*
X005740Y003065D01*
X005740Y003005D02*
X005740Y003305D01*
X005920Y003305D01*
X005980Y003245D01*
X006310Y003305D02*
X006310Y003065D01*
X005860Y002945D02*
X005800Y002945D01*
X005740Y003005D01*
X005584Y003125D02*
X005524Y003065D01*
X005404Y003065D01*
X005584Y003125D02*
X005584Y003245D01*
X005524Y003305D01*
X005404Y003305D01*
X005344Y003245D01*
X005344Y003185D01*
X005584Y003185D01*
X005188Y003185D02*
X005068Y003305D01*
X005008Y003305D01*
X005188Y003305D02*
X005188Y003065D01*
X007042Y003305D02*
X007102Y003245D01*
X007258Y003305D02*
X007438Y003305D01*
X007498Y003245D01*
X007498Y003125D01*
X008973Y003305D02*
X009153Y003305D01*
X009214Y003245D01*
M02*
