G75*
G70*
%OFA0B0*%
%FSLAX24Y24*%
%IPPOS*%
%LPD*%
%AMOC8*
5,1,8,0,0,1.08239X$1,22.5*
%
%ADD10C,0.0080*%
%ADD11C,0.0120*%
%ADD12C,0.0070*%
D10*
X003526Y001598D02*
X003526Y001968D01*
X003341Y001968D01*
X003279Y001907D01*
X003279Y001783D01*
X003341Y001721D01*
X003526Y001721D01*
X003679Y001721D02*
X003802Y001721D01*
X003741Y001721D02*
X003741Y001968D01*
X003802Y001968D01*
X003741Y002092D02*
X003741Y002153D01*
X004017Y002092D02*
X004017Y001721D01*
X004079Y001721D02*
X003955Y001721D01*
X004246Y001783D02*
X004246Y001907D01*
X004308Y001968D01*
X004493Y001968D01*
X004660Y001968D02*
X004846Y001968D01*
X004907Y001907D01*
X004846Y001845D01*
X004722Y001845D01*
X004660Y001783D01*
X004722Y001721D01*
X004907Y001721D01*
X005075Y001721D02*
X005075Y001968D01*
X005322Y001968D02*
X005322Y001783D01*
X005260Y001721D01*
X005075Y001721D01*
X004493Y001721D02*
X004308Y001721D01*
X004246Y001783D01*
X004493Y001721D02*
X004493Y002092D01*
X004079Y002092D02*
X004017Y002092D01*
X003112Y001907D02*
X003112Y001783D01*
X003050Y001721D01*
X002927Y001721D01*
X002865Y001783D01*
X002865Y001907D01*
X002927Y001968D01*
X003050Y001968D01*
X003112Y001907D01*
X005489Y002092D02*
X005736Y001721D01*
X005903Y001721D02*
X005903Y001907D01*
X005965Y001968D01*
X006027Y001907D01*
X006027Y001721D01*
X006150Y001721D02*
X006150Y001968D01*
X006089Y001968D01*
X006027Y001907D01*
X006318Y001907D02*
X006318Y001783D01*
X006379Y001721D01*
X006503Y001721D01*
X006565Y001783D01*
X006565Y001907D01*
X006503Y001968D01*
X006379Y001968D01*
X006318Y001907D01*
X006732Y001968D02*
X006917Y001968D01*
X006979Y001907D01*
X006979Y001783D01*
X006917Y001721D01*
X006732Y001721D01*
X007124Y001721D02*
X007186Y001721D01*
X007186Y001783D01*
X007124Y001783D01*
X007124Y001721D01*
X007354Y001783D02*
X007415Y001721D01*
X007600Y001721D01*
X007539Y001845D02*
X007415Y001845D01*
X007354Y001783D01*
X007539Y001845D02*
X007600Y001907D01*
X007539Y001968D01*
X007354Y001968D01*
X007768Y001968D02*
X007953Y001968D01*
X008015Y001907D01*
X008015Y001783D01*
X007953Y001721D01*
X007768Y001721D01*
X008168Y001721D02*
X008291Y001721D01*
X008229Y001721D02*
X008229Y001968D01*
X008291Y001968D01*
X008458Y001907D02*
X008458Y001721D01*
X008458Y001907D02*
X008520Y001968D01*
X008705Y001968D01*
X008705Y001721D01*
X008873Y001783D02*
X008873Y001907D01*
X008934Y001968D01*
X009058Y001968D01*
X009120Y001907D01*
X009120Y001783D01*
X009058Y001721D01*
X008934Y001721D01*
X008873Y001783D01*
X009280Y001968D02*
X009341Y001968D01*
X009465Y001845D01*
X009465Y001968D02*
X009465Y001721D01*
X009618Y001721D02*
X009679Y001783D01*
X009679Y002030D01*
X009618Y001968D02*
X009741Y001968D01*
X009909Y001907D02*
X009909Y001845D01*
X010155Y001845D01*
X010155Y001907D02*
X010094Y001968D01*
X009970Y001968D01*
X009909Y001907D01*
X009970Y001721D02*
X010094Y001721D01*
X010155Y001783D01*
X010155Y001907D01*
X010323Y001907D02*
X010323Y001845D01*
X010570Y001845D01*
X010570Y001783D02*
X010570Y001907D01*
X010508Y001968D01*
X010385Y001968D01*
X010323Y001907D01*
X010385Y001721D02*
X010508Y001721D01*
X010570Y001783D01*
X010730Y001968D02*
X010792Y001968D01*
X010915Y001845D01*
X010915Y001968D02*
X010915Y001721D01*
X011130Y001721D02*
X011130Y002030D01*
X011068Y002092D01*
X011068Y001907D02*
X011191Y001907D01*
X011337Y001783D02*
X011337Y001721D01*
X011398Y001721D01*
X011398Y001783D01*
X011337Y001783D01*
X011566Y001783D02*
X011566Y001968D01*
X011566Y001783D02*
X011628Y001721D01*
X011689Y001783D01*
X011751Y001721D01*
X011813Y001783D01*
X011813Y001968D01*
X011980Y001968D02*
X011980Y001783D01*
X012042Y001721D01*
X012104Y001783D01*
X012165Y001721D01*
X012227Y001783D01*
X012227Y001968D01*
X012395Y001968D02*
X012395Y001783D01*
X012456Y001721D01*
X012518Y001783D01*
X012580Y001721D01*
X012641Y001783D01*
X012641Y001968D01*
X012580Y001192D02*
X012456Y001192D01*
X012395Y001130D01*
X012227Y001192D02*
X012227Y000821D01*
X012395Y000883D02*
X012456Y000821D01*
X012580Y000821D01*
X012641Y000883D01*
X012580Y001007D02*
X012456Y001007D01*
X012395Y000945D01*
X012395Y000883D01*
X012227Y000945D02*
X011980Y001192D01*
X011813Y001192D02*
X011813Y000883D01*
X011751Y000821D01*
X011628Y000821D01*
X011566Y000883D01*
X011566Y001192D01*
X011398Y001068D02*
X011337Y001068D01*
X011337Y001007D01*
X011398Y001007D01*
X011398Y001068D01*
X011398Y000883D02*
X011337Y000883D01*
X011337Y000821D01*
X011398Y000821D01*
X011398Y000883D01*
X011980Y000821D02*
X012165Y001007D01*
X012580Y001007D02*
X012641Y001068D01*
X012641Y001130D01*
X012580Y001192D01*
X010777Y001192D02*
X010777Y000883D01*
X010715Y000821D01*
X010592Y000821D01*
X010530Y000883D01*
X010530Y001192D01*
X010363Y001130D02*
X010363Y001068D01*
X010301Y001007D01*
X010177Y001007D01*
X010116Y000945D01*
X010116Y000883D01*
X010177Y000821D01*
X010301Y000821D01*
X010363Y000883D01*
X009948Y000821D02*
X009763Y000821D01*
X009701Y000883D01*
X009701Y000945D01*
X009763Y001007D01*
X009948Y001007D01*
X009763Y001007D02*
X009701Y001068D01*
X009701Y001130D01*
X009763Y001192D01*
X009948Y001192D01*
X009948Y000821D01*
X009534Y000821D02*
X009287Y000821D01*
X009120Y000821D02*
X008996Y000821D01*
X009058Y000821D02*
X009058Y001192D01*
X009120Y001192D02*
X008996Y001192D01*
X008843Y001192D02*
X008658Y001192D01*
X008597Y001130D01*
X008597Y001007D01*
X008658Y000945D01*
X008843Y000945D01*
X008843Y000821D02*
X008843Y001192D01*
X008429Y001130D02*
X008429Y000883D01*
X008367Y000821D01*
X008244Y000821D01*
X008182Y000883D01*
X008182Y001130D01*
X008244Y001192D01*
X008367Y001192D01*
X008429Y001130D01*
X009534Y001192D02*
X009534Y000821D01*
X010116Y001130D02*
X010177Y001192D01*
X010301Y001192D01*
X010363Y001130D01*
X008229Y002092D02*
X008229Y002153D01*
X008875Y005071D02*
X008814Y005133D01*
X008875Y005195D01*
X008999Y005195D01*
X009061Y005257D01*
X008999Y005318D01*
X008814Y005318D01*
X008875Y005071D02*
X009061Y005071D01*
X009228Y005071D02*
X009413Y005071D01*
X009475Y005133D01*
X009475Y005257D01*
X009413Y005318D01*
X009228Y005318D01*
X009689Y005318D02*
X009689Y005071D01*
X009628Y005071D02*
X009751Y005071D01*
X009919Y005071D02*
X009919Y005257D01*
X009980Y005318D01*
X010165Y005318D01*
X010165Y005071D01*
X010333Y005133D02*
X010333Y005257D01*
X010395Y005318D01*
X010518Y005318D01*
X010580Y005257D01*
X010580Y005133D01*
X010518Y005071D01*
X010395Y005071D01*
X010333Y005133D01*
X010740Y005318D02*
X010802Y005318D01*
X010925Y005195D01*
X010925Y005318D02*
X010925Y005071D01*
X011078Y005071D02*
X011140Y005133D01*
X011140Y005380D01*
X011201Y005318D02*
X011078Y005318D01*
X011369Y005257D02*
X011369Y005195D01*
X011616Y005195D01*
X011616Y005133D02*
X011616Y005257D01*
X011554Y005318D01*
X011430Y005318D01*
X011369Y005257D01*
X011554Y005071D02*
X011616Y005133D01*
X011554Y005071D02*
X011430Y005071D01*
X011783Y005195D02*
X011783Y005257D01*
X011845Y005318D01*
X011968Y005318D01*
X012030Y005257D01*
X012030Y005133D01*
X011968Y005071D01*
X011845Y005071D01*
X011783Y005195D02*
X012030Y005195D01*
X012190Y005318D02*
X012252Y005318D01*
X012375Y005195D01*
X012528Y005257D02*
X012651Y005257D01*
X012590Y005380D02*
X012528Y005442D01*
X012590Y005380D02*
X012590Y005071D01*
X012375Y005071D02*
X012375Y005318D01*
X009751Y005318D02*
X009689Y005318D01*
X009689Y005442D02*
X009689Y005503D01*
D11*
X008901Y005671D02*
X008865Y005668D01*
X008829Y005662D01*
X008794Y005652D01*
X008760Y005639D01*
X008728Y005622D01*
X008697Y005603D01*
X008669Y005581D01*
X008642Y005555D01*
X008619Y005528D01*
X008598Y005498D01*
X008580Y005467D01*
X008565Y005433D01*
X008554Y005399D01*
X008546Y005363D01*
X008542Y005327D01*
X008541Y005291D01*
X008541Y005161D01*
X008542Y005125D01*
X008546Y005089D01*
X008554Y005053D01*
X008565Y005019D01*
X008580Y004985D01*
X008598Y004954D01*
X008619Y004924D01*
X008642Y004897D01*
X008669Y004871D01*
X008697Y004849D01*
X008728Y004830D01*
X008760Y004813D01*
X008794Y004800D01*
X008829Y004790D01*
X008865Y004784D01*
X008901Y004781D01*
X012521Y004781D01*
X012557Y004784D01*
X012593Y004790D01*
X012628Y004800D01*
X012662Y004813D01*
X012694Y004830D01*
X012725Y004849D01*
X012753Y004871D01*
X012780Y004897D01*
X012803Y004924D01*
X012824Y004954D01*
X012842Y004985D01*
X012857Y005019D01*
X012868Y005053D01*
X012876Y005089D01*
X012880Y005125D01*
X012881Y005161D01*
X012881Y005271D01*
X012881Y005272D02*
X012882Y005309D01*
X012878Y005346D01*
X012871Y005383D01*
X012860Y005419D01*
X012846Y005453D01*
X012829Y005486D01*
X012808Y005517D01*
X012784Y005546D01*
X012758Y005573D01*
X012729Y005596D01*
X012698Y005617D01*
X012666Y005635D01*
X012631Y005649D01*
X012596Y005660D01*
X012559Y005668D01*
X012522Y005671D01*
X012521Y005671D02*
X008901Y005671D01*
D12*
X010607Y003487D02*
X010607Y003427D01*
X010607Y003307D02*
X010607Y003066D01*
X010667Y003066D02*
X010547Y003066D01*
X010403Y003066D02*
X010403Y003427D01*
X010223Y003427D01*
X010163Y003367D01*
X010163Y003247D01*
X010223Y003186D01*
X010403Y003186D01*
X010607Y003307D02*
X010667Y003307D01*
X010823Y003066D02*
X011063Y003066D01*
X011063Y003427D01*
X011614Y003367D02*
X011614Y003307D01*
X011674Y003247D01*
X011614Y003186D01*
X011614Y003126D01*
X011674Y003066D01*
X011855Y003066D01*
X011855Y003427D01*
X011674Y003427D01*
X011614Y003367D01*
X011674Y003247D02*
X011855Y003247D01*
X012010Y003186D02*
X012010Y003126D01*
X012070Y003066D01*
X012190Y003066D01*
X012251Y003126D01*
X012190Y003247D02*
X012070Y003247D01*
X012010Y003186D01*
X012010Y003367D02*
X012070Y003427D01*
X012190Y003427D01*
X012251Y003367D01*
X012251Y003307D01*
X012190Y003247D01*
X012406Y003126D02*
X012406Y003427D01*
X012646Y003427D02*
X012646Y003126D01*
X012586Y003066D01*
X012466Y003066D01*
X012406Y003126D01*
X010007Y003126D02*
X009947Y003066D01*
X009827Y003066D01*
X009767Y003126D01*
X009767Y003247D01*
X009827Y003307D01*
X009947Y003307D01*
X010007Y003247D01*
X010007Y003126D01*
X009215Y003126D02*
X009155Y003066D01*
X008975Y003066D01*
X008819Y003126D02*
X008819Y003247D01*
X008759Y003307D01*
X008639Y003307D01*
X008579Y003247D01*
X008579Y003186D01*
X008819Y003186D01*
X008819Y003126D02*
X008759Y003066D01*
X008639Y003066D01*
X008423Y003066D02*
X008303Y003066D01*
X008363Y003066D02*
X008363Y003427D01*
X008423Y003427D01*
X008159Y003427D02*
X008099Y003427D01*
X008099Y003066D01*
X008159Y003066D02*
X008039Y003066D01*
X007500Y003126D02*
X007440Y003066D01*
X007259Y003066D01*
X007104Y003066D02*
X007104Y003427D01*
X007044Y003307D02*
X006924Y003307D01*
X006864Y003247D01*
X006864Y003066D01*
X006708Y003126D02*
X006648Y003186D01*
X006468Y003186D01*
X006468Y003247D02*
X006468Y003066D01*
X006648Y003066D01*
X006708Y003126D01*
X006648Y003307D02*
X006528Y003307D01*
X006468Y003247D01*
X006312Y003307D02*
X006312Y003066D01*
X006312Y003186D02*
X006192Y003307D01*
X006132Y003307D01*
X005982Y003247D02*
X005982Y003126D01*
X005922Y003066D01*
X005742Y003066D01*
X005742Y003006D02*
X005742Y003307D01*
X005922Y003307D01*
X005982Y003247D01*
X005586Y003247D02*
X005586Y003126D01*
X005526Y003066D01*
X005406Y003066D01*
X005346Y003186D02*
X005586Y003186D01*
X005586Y003247D02*
X005526Y003307D01*
X005406Y003307D01*
X005346Y003247D01*
X005346Y003186D01*
X005190Y003186D02*
X005070Y003307D01*
X005010Y003307D01*
X005190Y003307D02*
X005190Y003066D01*
X005742Y003006D02*
X005802Y002946D01*
X005862Y002946D01*
X007044Y003307D02*
X007104Y003247D01*
X007259Y003307D02*
X007440Y003307D01*
X007500Y003247D01*
X007500Y003126D01*
X008975Y003307D02*
X009155Y003307D01*
X009215Y003247D01*
X009215Y003126D01*
M02*
