G75*
G70*
%OFA0B0*%
%FSLAX24Y24*%
%IPPOS*%
%LPD*%
%AMOC8*
5,1,8,0,0,1.08239X$1,22.5*
%
%ADD10C,0.0000*%
%ADD11R,0.0472X0.0217*%
%ADD12R,0.0315X0.0354*%
%ADD13R,0.0394X0.0433*%
%ADD14R,0.1811X0.0394*%
%ADD15R,0.1339X0.0630*%
%ADD16R,0.0984X0.0197*%
%ADD17R,0.0984X0.0787*%
%ADD18R,0.0748X0.1339*%
%ADD19R,0.0300X0.0300*%
%ADD20C,0.0317*%
%ADD21C,0.0160*%
%ADD22C,0.0396*%
%ADD23C,0.0240*%
%ADD24C,0.0180*%
%ADD25C,0.0220*%
%ADD26C,0.0200*%
D10*
X001180Y000180D02*
X012180Y000180D01*
X012240Y000182D01*
X012301Y000187D01*
X012360Y000196D01*
X012419Y000209D01*
X012478Y000225D01*
X012535Y000245D01*
X012590Y000268D01*
X012645Y000295D01*
X012697Y000324D01*
X012748Y000357D01*
X012797Y000393D01*
X012843Y000431D01*
X012887Y000473D01*
X012929Y000517D01*
X012967Y000563D01*
X013003Y000612D01*
X013036Y000663D01*
X013065Y000715D01*
X013092Y000770D01*
X013115Y000825D01*
X013135Y000882D01*
X013151Y000941D01*
X013164Y001000D01*
X013173Y001059D01*
X013178Y001120D01*
X013180Y001180D01*
X013180Y005180D01*
X013178Y005240D01*
X013173Y005301D01*
X013164Y005360D01*
X013151Y005419D01*
X013135Y005478D01*
X013115Y005535D01*
X013092Y005590D01*
X013065Y005645D01*
X013036Y005697D01*
X013003Y005748D01*
X012967Y005797D01*
X012929Y005843D01*
X012887Y005887D01*
X012843Y005929D01*
X012797Y005967D01*
X012748Y006003D01*
X012697Y006036D01*
X012645Y006065D01*
X012590Y006092D01*
X012535Y006115D01*
X012478Y006135D01*
X012419Y006151D01*
X012360Y006164D01*
X012301Y006173D01*
X012240Y006178D01*
X012180Y006180D01*
X001180Y006180D01*
X000180Y005180D02*
X000180Y001180D01*
X000181Y001180D02*
X000192Y001115D01*
X000207Y001051D01*
X000225Y000988D01*
X000247Y000926D01*
X000272Y000865D01*
X000301Y000805D01*
X000333Y000748D01*
X000368Y000692D01*
X000406Y000638D01*
X000447Y000587D01*
X000491Y000538D01*
X000538Y000491D01*
X000587Y000447D01*
X000638Y000406D01*
X000692Y000368D01*
X000748Y000333D01*
X000805Y000301D01*
X000865Y000272D01*
X000926Y000247D01*
X000988Y000225D01*
X001051Y000207D01*
X001115Y000192D01*
X001180Y000181D01*
X002503Y002314D02*
X002505Y002340D01*
X002511Y002366D01*
X002521Y002391D01*
X002534Y002414D01*
X002550Y002434D01*
X002570Y002452D01*
X002592Y002467D01*
X002615Y002479D01*
X002641Y002487D01*
X002667Y002491D01*
X002693Y002491D01*
X002719Y002487D01*
X002745Y002479D01*
X002769Y002467D01*
X002790Y002452D01*
X002810Y002434D01*
X002826Y002414D01*
X002839Y002391D01*
X002849Y002366D01*
X002855Y002340D01*
X002857Y002314D01*
X002855Y002288D01*
X002849Y002262D01*
X002839Y002237D01*
X002826Y002214D01*
X002810Y002194D01*
X002790Y002176D01*
X002768Y002161D01*
X002745Y002149D01*
X002719Y002141D01*
X002693Y002137D01*
X002667Y002137D01*
X002641Y002141D01*
X002615Y002149D01*
X002591Y002161D01*
X002570Y002176D01*
X002550Y002194D01*
X002534Y002214D01*
X002521Y002237D01*
X002511Y002262D01*
X002505Y002288D01*
X002503Y002314D01*
X002503Y004046D02*
X002505Y004072D01*
X002511Y004098D01*
X002521Y004123D01*
X002534Y004146D01*
X002550Y004166D01*
X002570Y004184D01*
X002592Y004199D01*
X002615Y004211D01*
X002641Y004219D01*
X002667Y004223D01*
X002693Y004223D01*
X002719Y004219D01*
X002745Y004211D01*
X002769Y004199D01*
X002790Y004184D01*
X002810Y004166D01*
X002826Y004146D01*
X002839Y004123D01*
X002849Y004098D01*
X002855Y004072D01*
X002857Y004046D01*
X002855Y004020D01*
X002849Y003994D01*
X002839Y003969D01*
X002826Y003946D01*
X002810Y003926D01*
X002790Y003908D01*
X002768Y003893D01*
X002745Y003881D01*
X002719Y003873D01*
X002693Y003869D01*
X002667Y003869D01*
X002641Y003873D01*
X002615Y003881D01*
X002591Y003893D01*
X002570Y003908D01*
X002550Y003926D01*
X002534Y003946D01*
X002521Y003969D01*
X002511Y003994D01*
X002505Y004020D01*
X002503Y004046D01*
X001180Y006179D02*
X001115Y006168D01*
X001051Y006153D01*
X000988Y006135D01*
X000926Y006113D01*
X000865Y006088D01*
X000805Y006059D01*
X000748Y006027D01*
X000692Y005992D01*
X000638Y005954D01*
X000587Y005913D01*
X000538Y005869D01*
X000491Y005822D01*
X000447Y005773D01*
X000406Y005722D01*
X000368Y005668D01*
X000333Y005612D01*
X000301Y005555D01*
X000272Y005495D01*
X000247Y005434D01*
X000225Y005372D01*
X000207Y005309D01*
X000192Y005245D01*
X000181Y005180D01*
D11*
X007668Y004054D03*
X008692Y004054D03*
X008692Y003680D03*
X008692Y003306D03*
X007668Y003306D03*
D12*
X008306Y001924D03*
X009054Y001924D03*
X008680Y001097D03*
D13*
X007680Y001945D03*
X006430Y002345D03*
X005380Y002345D03*
X005380Y003015D03*
X006430Y003015D03*
X007680Y002615D03*
X007680Y004695D03*
X007680Y005365D03*
D14*
X010223Y003574D03*
X010223Y002786D03*
D15*
X012271Y001841D03*
X012271Y004519D03*
D16*
X003664Y003810D03*
X003664Y003495D03*
X003664Y003180D03*
X003664Y002865D03*
X003664Y002550D03*
D17*
X003664Y001408D03*
X001499Y001408D03*
X001499Y004952D03*
X003664Y004952D03*
D18*
X004912Y004330D03*
X006448Y004330D03*
D19*
X006180Y001636D03*
X005368Y001636D03*
X005368Y001036D03*
X006180Y001036D03*
D20*
X007463Y001097D03*
X007045Y002345D03*
X008180Y002830D03*
X008680Y002680D03*
X008180Y003680D03*
X007630Y003680D03*
X007180Y003680D03*
X007118Y004180D03*
X008180Y004480D03*
X008549Y004480D03*
X009305Y004055D03*
X004530Y001330D03*
D21*
X001017Y000497D02*
X012443Y000497D01*
X012516Y000521D02*
X012296Y000449D01*
X012180Y000440D01*
X001204Y000440D01*
X001101Y000462D01*
X000884Y000553D01*
X000697Y000697D01*
X000553Y000884D01*
X000462Y001101D01*
X000440Y001204D01*
X000440Y005156D01*
X000462Y005259D01*
X000553Y005476D01*
X000697Y005663D01*
X000884Y005807D01*
X001101Y005898D01*
X001204Y005920D01*
X012180Y005920D01*
X012296Y005911D01*
X012516Y005839D01*
X012703Y005703D01*
X012839Y005516D01*
X012911Y005296D01*
X012920Y005180D01*
X012920Y005014D01*
X011527Y005014D01*
X011421Y004908D01*
X011421Y004346D01*
X011015Y004738D01*
X010975Y004778D01*
X010972Y004779D01*
X010970Y004781D01*
X010917Y004802D01*
X010865Y004824D01*
X010862Y004824D01*
X010859Y004825D01*
X010802Y004824D01*
X009211Y004824D01*
X009152Y004824D01*
X009152Y004824D01*
X009152Y004824D01*
X009093Y004799D01*
X009041Y004778D01*
X008996Y004733D01*
X008607Y004343D01*
X008604Y004342D01*
X008381Y004342D01*
X008276Y004237D01*
X008276Y003871D01*
X008288Y003858D01*
X008276Y003812D01*
X008276Y003680D01*
X008276Y003548D01*
X008288Y003502D01*
X008288Y003502D01*
X008276Y003489D01*
X008276Y003123D01*
X008380Y003019D01*
X008380Y002841D01*
X008341Y002747D01*
X008341Y002613D01*
X008393Y002488D01*
X008488Y002393D01*
X008582Y002354D01*
X008738Y002197D01*
X008717Y002175D01*
X008717Y001672D01*
X008822Y001567D01*
X009286Y001567D01*
X009391Y001672D01*
X009391Y002175D01*
X009354Y002213D01*
X009354Y002366D01*
X009336Y002409D01*
X011203Y002409D01*
X011299Y002505D01*
X011552Y002505D01*
X011662Y002551D01*
X011747Y002635D01*
X011934Y002823D01*
X011980Y002933D01*
X011980Y003052D01*
X011980Y003623D01*
X011981Y003626D01*
X011980Y003683D01*
X011980Y003740D01*
X011979Y003742D01*
X011979Y003745D01*
X011956Y003797D01*
X011934Y003850D01*
X011932Y003852D01*
X011931Y003855D01*
X011890Y003894D01*
X011850Y003934D01*
X011847Y003935D01*
X011756Y004024D01*
X012920Y004024D01*
X012920Y002336D01*
X011527Y002336D01*
X011421Y002231D01*
X011421Y001452D01*
X011527Y001346D01*
X012920Y001346D01*
X012920Y001180D01*
X012911Y001064D01*
X012839Y000844D01*
X012703Y000657D01*
X012516Y000521D01*
X012702Y000656D02*
X000751Y000656D01*
X000607Y000814D02*
X004622Y000814D01*
X004654Y000782D02*
X004764Y000736D01*
X005113Y000736D01*
X005143Y000706D01*
X005592Y000706D01*
X005698Y000812D01*
X005698Y001261D01*
X005622Y001336D01*
X005622Y001336D01*
X005925Y001336D01*
X005850Y001261D01*
X005850Y001221D01*
X005833Y001205D01*
X005788Y001094D01*
X005788Y000975D01*
X005833Y000865D01*
X005850Y000848D01*
X005850Y000812D01*
X005955Y000706D01*
X006405Y000706D01*
X006433Y000735D01*
X006794Y000735D01*
X006905Y000780D01*
X007133Y001009D01*
X007176Y000905D01*
X007271Y000810D01*
X007396Y000758D01*
X007530Y000758D01*
X007624Y000797D01*
X008391Y000797D01*
X008448Y000740D01*
X008912Y000740D01*
X009017Y000845D01*
X009017Y001349D01*
X008912Y001454D01*
X008448Y001454D01*
X008391Y001397D01*
X007624Y001397D01*
X007530Y001436D01*
X007396Y001436D01*
X007345Y001415D01*
X007345Y001612D01*
X007373Y001585D01*
X007414Y001561D01*
X007459Y001549D01*
X007662Y001549D01*
X007662Y001927D01*
X007698Y001927D01*
X007698Y001549D01*
X007901Y001549D01*
X007946Y001561D01*
X007987Y001585D01*
X008021Y001618D01*
X008021Y001619D01*
X008038Y001602D01*
X008079Y001579D01*
X008125Y001567D01*
X008306Y001567D01*
X008487Y001567D01*
X008533Y001579D01*
X008574Y001602D01*
X008608Y001636D01*
X008631Y001677D01*
X008643Y001723D01*
X008643Y001924D01*
X008643Y002125D01*
X008631Y002170D01*
X008608Y002211D01*
X008574Y002245D01*
X008533Y002269D01*
X008487Y002281D01*
X008306Y002281D01*
X008306Y001924D01*
X008306Y002281D01*
X008125Y002281D01*
X008079Y002269D01*
X008038Y002245D01*
X008037Y002244D01*
X008021Y002272D01*
X008013Y002280D01*
X008057Y002324D01*
X008057Y002906D01*
X007958Y003004D01*
X007958Y003018D01*
X007979Y003018D01*
X008084Y003123D01*
X008084Y003489D01*
X007979Y003594D01*
X007730Y003594D01*
X007726Y003596D01*
X007610Y003596D01*
X007606Y003594D01*
X007357Y003594D01*
X007252Y003489D01*
X007252Y003123D01*
X007357Y003018D01*
X007378Y003018D01*
X007378Y002981D01*
X007303Y002906D01*
X007303Y002567D01*
X007237Y002633D01*
X007113Y002684D01*
X006978Y002684D01*
X006884Y002645D01*
X006798Y002645D01*
X006763Y002680D01*
X006807Y002724D01*
X006807Y003306D01*
X006730Y003383D01*
X006730Y003481D01*
X006896Y003481D01*
X007002Y003586D01*
X007002Y004395D01*
X007312Y004395D01*
X007365Y004342D01*
X007357Y004342D01*
X007252Y004237D01*
X007252Y003871D01*
X007357Y003766D01*
X007979Y003766D01*
X008084Y003871D01*
X008084Y004237D01*
X007987Y004334D01*
X008057Y004404D01*
X008057Y004986D01*
X008013Y005030D01*
X008021Y005038D01*
X008045Y005079D01*
X008057Y005124D01*
X008057Y005346D01*
X007698Y005346D01*
X007698Y005383D01*
X007662Y005383D01*
X007662Y005761D01*
X007459Y005761D01*
X007414Y005749D01*
X007373Y005725D01*
X007339Y005692D01*
X007315Y005651D01*
X007303Y005605D01*
X007303Y005383D01*
X007662Y005383D01*
X007662Y005346D01*
X007303Y005346D01*
X007303Y005124D01*
X007315Y005079D01*
X007339Y005038D01*
X007347Y005030D01*
X007312Y004995D01*
X007002Y004995D01*
X007002Y005074D01*
X006896Y005179D01*
X005999Y005179D01*
X005894Y005074D01*
X005894Y003586D01*
X005999Y003481D01*
X006130Y003481D01*
X006130Y003383D01*
X006062Y003315D01*
X005748Y003315D01*
X005651Y003411D01*
X005109Y003411D01*
X005003Y003306D01*
X005003Y002724D01*
X005047Y002680D01*
X005003Y002636D01*
X005003Y002054D01*
X005080Y001977D01*
X005080Y001903D01*
X005038Y001861D01*
X005038Y001412D01*
X005113Y001336D01*
X004948Y001336D01*
X004856Y001428D01*
X004817Y001522D01*
X004722Y001617D01*
X004597Y001669D01*
X004463Y001669D01*
X004338Y001617D01*
X004336Y001615D01*
X004336Y001826D01*
X004324Y001872D01*
X004300Y001913D01*
X004267Y001946D01*
X004226Y001970D01*
X004180Y001982D01*
X003744Y001982D01*
X003744Y001488D01*
X004229Y001488D01*
X004191Y001397D01*
X004191Y001328D01*
X003744Y001328D01*
X003744Y000835D01*
X004180Y000835D01*
X004226Y000847D01*
X004267Y000871D01*
X004300Y000904D01*
X004324Y000945D01*
X004336Y000991D01*
X004336Y001045D01*
X004338Y001043D01*
X004432Y001004D01*
X004654Y000782D01*
X004463Y000973D02*
X004331Y000973D01*
X003744Y000973D02*
X003584Y000973D01*
X003584Y000835D02*
X003584Y001328D01*
X003744Y001328D01*
X003744Y001488D01*
X003584Y001488D01*
X003584Y001328D01*
X002992Y001328D01*
X002992Y000991D01*
X003004Y000945D01*
X003028Y000904D01*
X003062Y000871D01*
X003103Y000847D01*
X003148Y000835D01*
X003584Y000835D01*
X003584Y001131D02*
X003744Y001131D01*
X003744Y001290D02*
X003584Y001290D01*
X003584Y001448D02*
X001579Y001448D01*
X001579Y001488D02*
X002171Y001488D01*
X002171Y001826D01*
X002159Y001872D01*
X002135Y001913D01*
X002102Y001946D01*
X002061Y001970D01*
X002015Y001982D01*
X001579Y001982D01*
X001579Y001488D01*
X001579Y001328D01*
X001579Y000835D01*
X002015Y000835D01*
X002061Y000847D01*
X002102Y000871D01*
X002135Y000904D01*
X002159Y000945D01*
X002171Y000991D01*
X002171Y001328D01*
X001579Y001328D01*
X001419Y001328D01*
X001419Y000835D01*
X000983Y000835D01*
X000937Y000847D01*
X000896Y000871D01*
X000863Y000904D01*
X000839Y000945D01*
X000827Y000991D01*
X000827Y001328D01*
X001419Y001328D01*
X001419Y001488D01*
X000827Y001488D01*
X000827Y001826D01*
X000839Y001872D01*
X000863Y001913D01*
X000896Y001946D01*
X000937Y001970D01*
X000983Y001982D01*
X001419Y001982D01*
X001419Y001488D01*
X001579Y001488D01*
X001419Y001448D02*
X000440Y001448D01*
X000440Y001290D02*
X000827Y001290D01*
X000827Y001131D02*
X000455Y001131D01*
X000516Y000973D02*
X000832Y000973D01*
X001419Y000973D02*
X001579Y000973D01*
X001579Y001131D02*
X001419Y001131D01*
X001419Y001290D02*
X001579Y001290D01*
X001579Y001607D02*
X001419Y001607D01*
X001419Y001765D02*
X001579Y001765D01*
X001579Y001924D02*
X001419Y001924D01*
X000874Y001924D02*
X000440Y001924D01*
X000440Y002082D02*
X002303Y002082D01*
X002309Y002066D02*
X002432Y001943D01*
X002593Y001877D01*
X002767Y001877D01*
X002928Y001943D01*
X003051Y002066D01*
X003117Y002227D01*
X003117Y002280D01*
X003148Y002272D01*
X003664Y002272D01*
X003664Y002550D01*
X003664Y002550D01*
X003664Y002272D01*
X004180Y002272D01*
X004226Y002284D01*
X004267Y002308D01*
X004300Y002341D01*
X004324Y002382D01*
X004336Y002428D01*
X004336Y002550D01*
X003664Y002550D01*
X003664Y002550D01*
X004336Y002550D01*
X004336Y002672D01*
X004332Y002688D01*
X004336Y002692D01*
X004336Y003930D01*
X004358Y003930D01*
X004358Y003586D01*
X004464Y003481D01*
X005361Y003481D01*
X005466Y003586D01*
X005466Y005074D01*
X005361Y005179D01*
X004464Y005179D01*
X004358Y005074D01*
X004358Y004530D01*
X004335Y004530D01*
X004336Y004534D01*
X004336Y004872D01*
X003744Y004872D01*
X003744Y005032D01*
X003584Y005032D01*
X003584Y005525D01*
X003148Y005525D01*
X003103Y005513D01*
X003062Y005489D01*
X003028Y005456D01*
X003004Y005415D01*
X002992Y005369D01*
X002992Y005032D01*
X003584Y005032D01*
X003584Y004872D01*
X002992Y004872D01*
X002992Y004534D01*
X003004Y004488D01*
X003028Y004447D01*
X003062Y004414D01*
X003103Y004390D01*
X003148Y004378D01*
X003554Y004378D01*
X003410Y004234D01*
X003364Y004124D01*
X003364Y004088D01*
X003117Y004088D01*
X003117Y004133D01*
X003051Y004294D01*
X002928Y004417D01*
X002767Y004483D01*
X002593Y004483D01*
X002432Y004417D01*
X002309Y004294D01*
X002243Y004133D01*
X002243Y003959D01*
X002309Y003799D01*
X002432Y003676D01*
X002593Y003609D01*
X002767Y003609D01*
X002928Y003676D01*
X002992Y003740D01*
X002992Y002692D01*
X002996Y002688D01*
X002992Y002672D01*
X002992Y002620D01*
X002928Y002684D01*
X002767Y002751D01*
X002593Y002751D01*
X002432Y002684D01*
X002309Y002561D01*
X002243Y002401D01*
X002243Y002227D01*
X002309Y002066D01*
X002480Y001924D02*
X002124Y001924D01*
X002171Y001765D02*
X002992Y001765D01*
X002992Y001826D02*
X002992Y001488D01*
X003584Y001488D01*
X003584Y001982D01*
X003148Y001982D01*
X003103Y001970D01*
X003062Y001946D01*
X003028Y001913D01*
X003004Y001872D01*
X002992Y001826D01*
X003039Y001924D02*
X002880Y001924D01*
X003057Y002082D02*
X005003Y002082D01*
X005080Y001924D02*
X004289Y001924D01*
X004336Y001765D02*
X005038Y001765D01*
X005038Y001607D02*
X004733Y001607D01*
X004848Y001448D02*
X005038Y001448D01*
X005368Y001636D02*
X005380Y001649D01*
X005680Y001936D02*
X005680Y001977D01*
X005757Y002054D01*
X005757Y002636D01*
X005713Y002680D01*
X005748Y002715D01*
X006062Y002715D01*
X006097Y002680D01*
X006053Y002636D01*
X006053Y002054D01*
X006141Y001966D01*
X005955Y001966D01*
X005925Y001936D01*
X005680Y001936D01*
X005757Y002082D02*
X006053Y002082D01*
X006053Y002241D02*
X005757Y002241D01*
X005757Y002399D02*
X006053Y002399D01*
X006053Y002558D02*
X005757Y002558D01*
X005003Y002558D02*
X004336Y002558D01*
X004336Y002716D02*
X005011Y002716D01*
X005003Y002875D02*
X004336Y002875D01*
X004336Y003033D02*
X005003Y003033D01*
X005003Y003192D02*
X004336Y003192D01*
X004336Y003350D02*
X005047Y003350D01*
X005389Y003509D02*
X005971Y003509D01*
X005894Y003667D02*
X005466Y003667D01*
X005466Y003826D02*
X005894Y003826D01*
X005894Y003984D02*
X005466Y003984D01*
X005466Y004143D02*
X005894Y004143D01*
X005894Y004301D02*
X005466Y004301D01*
X005466Y004460D02*
X005894Y004460D01*
X005894Y004618D02*
X005466Y004618D01*
X005466Y004777D02*
X005894Y004777D01*
X005894Y004935D02*
X005466Y004935D01*
X005447Y005094D02*
X005913Y005094D01*
X006982Y005094D02*
X007311Y005094D01*
X007303Y005252D02*
X004336Y005252D01*
X004336Y005369D02*
X004324Y005415D01*
X004300Y005456D01*
X004267Y005489D01*
X004226Y005513D01*
X004180Y005525D01*
X003744Y005525D01*
X003744Y005032D01*
X004336Y005032D01*
X004336Y005369D01*
X004325Y005411D02*
X007303Y005411D01*
X007303Y005569D02*
X000625Y005569D01*
X000526Y005411D02*
X000838Y005411D01*
X000839Y005415D02*
X000827Y005369D01*
X000827Y005032D01*
X001419Y005032D01*
X001419Y005525D01*
X000983Y005525D01*
X000937Y005513D01*
X000896Y005489D01*
X000863Y005456D01*
X000839Y005415D01*
X000827Y005252D02*
X000460Y005252D01*
X000440Y005094D02*
X000827Y005094D01*
X000440Y004935D02*
X001419Y004935D01*
X001419Y004872D02*
X000827Y004872D01*
X000827Y004534D01*
X000839Y004488D01*
X000863Y004447D01*
X000896Y004414D01*
X000937Y004390D01*
X000983Y004378D01*
X001419Y004378D01*
X001419Y004872D01*
X001419Y005032D01*
X001579Y005032D01*
X001579Y005525D01*
X002015Y005525D01*
X002061Y005513D01*
X002102Y005489D01*
X002135Y005456D01*
X002159Y005415D01*
X002171Y005369D01*
X002171Y005032D01*
X001579Y005032D01*
X001579Y004872D01*
X002171Y004872D01*
X002171Y004534D01*
X002159Y004488D01*
X002135Y004447D01*
X002102Y004414D01*
X002061Y004390D01*
X002015Y004378D01*
X001579Y004378D01*
X001579Y004872D01*
X001419Y004872D01*
X001419Y004777D02*
X001579Y004777D01*
X001579Y004935D02*
X003584Y004935D01*
X003584Y004872D02*
X003584Y004409D01*
X003660Y004484D01*
X003744Y004519D01*
X003744Y004872D01*
X003584Y004872D01*
X003584Y004777D02*
X003744Y004777D01*
X003744Y004935D02*
X004358Y004935D01*
X004358Y004777D02*
X004336Y004777D01*
X004336Y004618D02*
X004358Y004618D01*
X003744Y004618D02*
X003584Y004618D01*
X003584Y004460D02*
X003635Y004460D01*
X003477Y004301D02*
X003043Y004301D01*
X003113Y004143D02*
X003372Y004143D01*
X003021Y004460D02*
X002824Y004460D01*
X002992Y004618D02*
X002171Y004618D01*
X002142Y004460D02*
X002536Y004460D01*
X002317Y004301D02*
X000440Y004301D01*
X000440Y004143D02*
X002247Y004143D01*
X002243Y003984D02*
X000440Y003984D01*
X000440Y003826D02*
X002298Y003826D01*
X002453Y003667D02*
X000440Y003667D01*
X000440Y003509D02*
X002992Y003509D01*
X002992Y003667D02*
X002907Y003667D01*
X002992Y003350D02*
X000440Y003350D01*
X000440Y003192D02*
X002992Y003192D01*
X002992Y003033D02*
X000440Y003033D01*
X000440Y002875D02*
X002992Y002875D01*
X002992Y002716D02*
X002852Y002716D01*
X002508Y002716D02*
X000440Y002716D01*
X000440Y002558D02*
X002308Y002558D01*
X002243Y002399D02*
X000440Y002399D01*
X000440Y002241D02*
X002243Y002241D01*
X003117Y002241D02*
X005003Y002241D01*
X005003Y002399D02*
X004329Y002399D01*
X003664Y002399D02*
X003664Y002399D01*
X003584Y001924D02*
X003744Y001924D01*
X003744Y001765D02*
X003584Y001765D01*
X003584Y001607D02*
X003744Y001607D01*
X003744Y001448D02*
X004212Y001448D01*
X002992Y001607D02*
X002171Y001607D01*
X002171Y001290D02*
X002992Y001290D01*
X002992Y001131D02*
X002171Y001131D01*
X002166Y000973D02*
X002997Y000973D01*
X000827Y001607D02*
X000440Y001607D01*
X000440Y001765D02*
X000827Y001765D01*
X004336Y003509D02*
X004436Y003509D01*
X004358Y003667D02*
X004336Y003667D01*
X004336Y003826D02*
X004358Y003826D01*
X005713Y003350D02*
X006097Y003350D01*
X006763Y003350D02*
X007252Y003350D01*
X007252Y003192D02*
X006807Y003192D01*
X006807Y003033D02*
X007342Y003033D01*
X007303Y002875D02*
X006807Y002875D01*
X006799Y002716D02*
X007303Y002716D01*
X007994Y003033D02*
X008366Y003033D01*
X008380Y002875D02*
X008057Y002875D01*
X008057Y002716D02*
X008341Y002716D01*
X008364Y002558D02*
X008057Y002558D01*
X008057Y002399D02*
X008482Y002399D01*
X008578Y002241D02*
X008695Y002241D01*
X008717Y002082D02*
X008643Y002082D01*
X008643Y001924D02*
X008306Y001924D01*
X008306Y001924D01*
X008306Y001924D01*
X008643Y001924D01*
X008717Y001924D01*
X008717Y001765D02*
X008643Y001765D01*
X008578Y001607D02*
X008782Y001607D01*
X008918Y001448D02*
X011425Y001448D01*
X011421Y001607D02*
X009326Y001607D01*
X009391Y001765D02*
X011421Y001765D01*
X011421Y001924D02*
X009391Y001924D01*
X009391Y002082D02*
X011421Y002082D01*
X011431Y002241D02*
X009354Y002241D01*
X009340Y002399D02*
X012920Y002399D01*
X012920Y002558D02*
X011669Y002558D01*
X011828Y002716D02*
X012920Y002716D01*
X012920Y002875D02*
X011956Y002875D01*
X011980Y003033D02*
X012920Y003033D01*
X012920Y003192D02*
X011980Y003192D01*
X011980Y003350D02*
X012920Y003350D01*
X012920Y003509D02*
X011980Y003509D01*
X011980Y003667D02*
X012920Y003667D01*
X012920Y003826D02*
X011944Y003826D01*
X011797Y003984D02*
X012920Y003984D01*
X011421Y004460D02*
X011304Y004460D01*
X011421Y004618D02*
X011139Y004618D01*
X010976Y004777D02*
X011421Y004777D01*
X011448Y004935D02*
X008057Y004935D01*
X008057Y004777D02*
X009040Y004777D01*
X009041Y004778D02*
X009041Y004778D01*
X009041Y004778D01*
X008881Y004618D02*
X008057Y004618D01*
X008057Y004460D02*
X008723Y004460D01*
X008340Y004301D02*
X008020Y004301D01*
X008084Y004143D02*
X008276Y004143D01*
X008276Y003984D02*
X008084Y003984D01*
X008039Y003826D02*
X008279Y003826D01*
X008288Y003858D02*
X008288Y003858D01*
X008276Y003680D02*
X008692Y003680D01*
X009108Y003680D01*
X009108Y003812D01*
X009096Y003858D01*
X009095Y003858D01*
X009108Y003871D01*
X009108Y003996D01*
X009336Y004224D01*
X010684Y004224D01*
X010967Y003951D01*
X010242Y003951D01*
X010242Y003592D01*
X011309Y003592D01*
X011309Y003621D01*
X011380Y003553D01*
X011380Y003117D01*
X011368Y003105D01*
X011262Y003105D01*
X011203Y003163D01*
X009243Y003163D01*
X009138Y003058D01*
X009138Y002646D01*
X009006Y002778D01*
X008980Y002841D01*
X008980Y003018D01*
X009003Y003018D01*
X009108Y003123D01*
X009108Y003489D01*
X009095Y003502D01*
X009096Y003502D01*
X009108Y003548D01*
X009108Y003680D01*
X008692Y003680D01*
X008692Y003680D01*
X008276Y003680D01*
X008276Y003667D02*
X007002Y003667D01*
X006924Y003509D02*
X007272Y003509D01*
X007298Y003826D02*
X007002Y003826D01*
X007002Y003984D02*
X007252Y003984D01*
X007252Y004143D02*
X007002Y004143D01*
X007002Y004301D02*
X007316Y004301D01*
X008692Y003680D02*
X008692Y003680D01*
X009108Y003667D02*
X009138Y003667D01*
X009138Y003592D02*
X010205Y003592D01*
X010205Y003555D01*
X010242Y003555D01*
X010242Y003592D01*
X010205Y003592D01*
X010205Y003951D01*
X009294Y003951D01*
X009248Y003938D01*
X009207Y003915D01*
X009174Y003881D01*
X009150Y003840D01*
X009138Y003794D01*
X009138Y003592D01*
X009138Y003555D02*
X009138Y003353D01*
X009150Y003307D01*
X009174Y003266D01*
X009207Y003233D01*
X009248Y003209D01*
X009294Y003197D01*
X010205Y003197D01*
X010205Y003555D01*
X009138Y003555D01*
X009138Y003509D02*
X009097Y003509D01*
X009108Y003350D02*
X009139Y003350D01*
X009108Y003192D02*
X011380Y003192D01*
X011273Y003266D02*
X011297Y003307D01*
X011309Y003353D01*
X011309Y003555D01*
X010242Y003555D01*
X010242Y003197D01*
X011153Y003197D01*
X011198Y003209D01*
X011239Y003233D01*
X011273Y003266D01*
X011308Y003350D02*
X011380Y003350D01*
X011380Y003509D02*
X011309Y003509D01*
X010933Y003984D02*
X009108Y003984D01*
X009104Y003826D02*
X009146Y003826D01*
X009254Y004143D02*
X010768Y004143D01*
X010242Y003826D02*
X010205Y003826D01*
X010205Y003667D02*
X010242Y003667D01*
X010242Y003509D02*
X010205Y003509D01*
X010205Y003350D02*
X010242Y003350D01*
X009138Y003033D02*
X009018Y003033D01*
X008980Y002875D02*
X009138Y002875D01*
X009138Y002716D02*
X009068Y002716D01*
X008306Y002241D02*
X008306Y002241D01*
X008306Y002082D02*
X008306Y002082D01*
X008306Y001924D02*
X008306Y001567D01*
X008306Y001924D01*
X008306Y001924D01*
X008306Y001924D01*
X008306Y001765D02*
X008306Y001765D01*
X008306Y001607D02*
X008306Y001607D01*
X008034Y001607D02*
X008009Y001607D01*
X007698Y001607D02*
X007662Y001607D01*
X007662Y001765D02*
X007698Y001765D01*
X007351Y001607D02*
X007345Y001607D01*
X007345Y001448D02*
X008442Y001448D01*
X009017Y001290D02*
X012920Y001290D01*
X012916Y001131D02*
X009017Y001131D01*
X009017Y000973D02*
X012881Y000973D01*
X012818Y000814D02*
X008986Y000814D01*
X007267Y000814D02*
X006938Y000814D01*
X007097Y000973D02*
X007148Y000973D01*
X006745Y001470D02*
X006610Y001335D01*
X006436Y001335D01*
X006435Y001336D01*
X006510Y001412D01*
X006510Y001861D01*
X006422Y001949D01*
X006701Y001949D01*
X006745Y001993D01*
X006745Y001470D01*
X006724Y001448D02*
X006510Y001448D01*
X006510Y001607D02*
X006745Y001607D01*
X006745Y001765D02*
X006510Y001765D01*
X006180Y001636D02*
X006086Y001636D01*
X005879Y001290D02*
X005669Y001290D01*
X005698Y001131D02*
X005803Y001131D01*
X005789Y000973D02*
X005698Y000973D01*
X005698Y000814D02*
X005850Y000814D01*
X006088Y001035D02*
X006180Y001036D01*
X006447Y001924D02*
X006745Y001924D01*
X007662Y001924D02*
X007698Y001924D01*
X008084Y003192D02*
X008276Y003192D01*
X008276Y003350D02*
X008084Y003350D01*
X008065Y003509D02*
X008286Y003509D01*
X008049Y005094D02*
X012920Y005094D01*
X012914Y005252D02*
X008057Y005252D01*
X008057Y005383D02*
X008057Y005605D01*
X008045Y005651D01*
X008021Y005692D01*
X007987Y005725D01*
X007946Y005749D01*
X007901Y005761D01*
X007698Y005761D01*
X007698Y005383D01*
X008057Y005383D01*
X008057Y005411D02*
X012874Y005411D01*
X012801Y005569D02*
X008057Y005569D01*
X007983Y005728D02*
X012670Y005728D01*
X012372Y005886D02*
X001072Y005886D01*
X000781Y005728D02*
X007377Y005728D01*
X007662Y005728D02*
X007698Y005728D01*
X007698Y005569D02*
X007662Y005569D01*
X007662Y005411D02*
X007698Y005411D01*
X004378Y005094D02*
X004336Y005094D01*
X003744Y005094D02*
X003584Y005094D01*
X003584Y005252D02*
X003744Y005252D01*
X003744Y005411D02*
X003584Y005411D01*
X003003Y005411D02*
X002160Y005411D01*
X002171Y005252D02*
X002992Y005252D01*
X002992Y005094D02*
X002171Y005094D01*
X002171Y004777D02*
X002992Y004777D01*
X001579Y004618D02*
X001419Y004618D01*
X001419Y004460D02*
X001579Y004460D01*
X000856Y004460D02*
X000440Y004460D01*
X000440Y004618D02*
X000827Y004618D01*
X000827Y004777D02*
X000440Y004777D01*
X001419Y005094D02*
X001579Y005094D01*
X001579Y005252D02*
X001419Y005252D01*
X001419Y005411D02*
X001579Y005411D01*
D22*
X001680Y005055D03*
X001305Y004805D03*
X003430Y004805D03*
X003930Y004930D03*
X001680Y001555D03*
X001305Y001305D03*
X003430Y001305D03*
X003930Y001430D03*
X011805Y001805D03*
X012305Y001805D03*
X012305Y004430D03*
X011805Y004430D03*
D23*
X011680Y003680D02*
X010805Y004524D01*
X009211Y004524D01*
X008741Y004054D01*
X008692Y004054D01*
X007680Y004066D02*
X007680Y004695D01*
X006195Y004695D01*
X006430Y004080D02*
X006430Y003015D01*
X005380Y003015D01*
X005380Y002345D02*
X005380Y001649D01*
X005368Y001636D02*
X006086Y001636D01*
X006735Y001035D02*
X007045Y001345D01*
X007045Y002345D01*
X006430Y002345D01*
X004824Y001036D02*
X004530Y001330D01*
X004824Y001036D02*
X005368Y001036D01*
X006088Y001035D02*
X006735Y001035D01*
X007463Y001097D02*
X008680Y001097D01*
X009054Y001924D02*
X009054Y002306D01*
X008680Y002680D01*
X008680Y003294D01*
X010223Y002786D02*
X010242Y002805D01*
X011493Y002805D01*
X011680Y002992D01*
X011680Y003680D01*
X004862Y004230D02*
X003830Y004230D01*
X003664Y004064D01*
D24*
X004830Y004280D02*
X004880Y004080D01*
X004880Y004298D01*
X004912Y004330D01*
X004862Y004230D01*
X004892Y004310D02*
X004912Y004330D01*
X006180Y004680D02*
X006330Y004680D01*
X006680Y004330D01*
X006430Y004080D01*
X006180Y004680D02*
X006195Y004695D01*
X007668Y004054D02*
X007680Y004066D01*
X008680Y003294D02*
X008692Y003306D01*
X007680Y002615D02*
X007668Y002626D01*
D25*
X007668Y003306D01*
X003664Y003810D02*
X003664Y004064D01*
D26*
X006448Y004330D02*
X006680Y004330D01*
M02*
