G75*
G70*
%OFA0B0*%
%FSLAX24Y24*%
%IPPOS*%
%LPD*%
%AMOC8*
5,1,8,0,0,1.08239X$1,22.5*
%
%ADD10C,0.0000*%
%ADD11R,0.0472X0.0217*%
%ADD12R,0.0315X0.0354*%
%ADD13R,0.0394X0.0433*%
%ADD14R,0.1811X0.0394*%
%ADD15R,0.1339X0.0630*%
%ADD16R,0.0984X0.0197*%
%ADD17R,0.0984X0.0787*%
%ADD18R,0.0748X0.1339*%
%ADD19R,0.0300X0.0300*%
%ADD20C,0.0160*%
%ADD21C,0.0317*%
%ADD22C,0.0240*%
%ADD23C,0.0180*%
%ADD24C,0.0220*%
%ADD25C,0.0200*%
D10*
X001181Y000181D02*
X012181Y000181D01*
X012241Y000183D01*
X012302Y000188D01*
X012361Y000197D01*
X012420Y000210D01*
X012479Y000226D01*
X012536Y000246D01*
X012591Y000269D01*
X012646Y000296D01*
X012698Y000325D01*
X012749Y000358D01*
X012798Y000394D01*
X012844Y000432D01*
X012888Y000474D01*
X012930Y000518D01*
X012968Y000564D01*
X013004Y000613D01*
X013037Y000664D01*
X013066Y000716D01*
X013093Y000771D01*
X013116Y000826D01*
X013136Y000883D01*
X013152Y000942D01*
X013165Y001001D01*
X013174Y001060D01*
X013179Y001121D01*
X013181Y001181D01*
X013181Y005181D01*
X013179Y005241D01*
X013174Y005302D01*
X013165Y005361D01*
X013152Y005420D01*
X013136Y005479D01*
X013116Y005536D01*
X013093Y005591D01*
X013066Y005646D01*
X013037Y005698D01*
X013004Y005749D01*
X012968Y005798D01*
X012930Y005844D01*
X012888Y005888D01*
X012844Y005930D01*
X012798Y005968D01*
X012749Y006004D01*
X012698Y006037D01*
X012646Y006066D01*
X012591Y006093D01*
X012536Y006116D01*
X012479Y006136D01*
X012420Y006152D01*
X012361Y006165D01*
X012302Y006174D01*
X012241Y006179D01*
X012181Y006181D01*
X001181Y006181D01*
X000181Y005181D02*
X000181Y001181D01*
X000192Y001116D01*
X000207Y001052D01*
X000225Y000989D01*
X000247Y000926D01*
X000272Y000865D01*
X000301Y000806D01*
X000333Y000748D01*
X000368Y000692D01*
X000406Y000639D01*
X000447Y000587D01*
X000491Y000538D01*
X000538Y000491D01*
X000587Y000447D01*
X000639Y000406D01*
X000692Y000368D01*
X000748Y000333D01*
X000806Y000301D01*
X000865Y000272D01*
X000926Y000247D01*
X000989Y000225D01*
X001052Y000207D01*
X001116Y000192D01*
X001181Y000181D01*
X002504Y002315D02*
X002506Y002341D01*
X002512Y002367D01*
X002522Y002392D01*
X002535Y002415D01*
X002551Y002435D01*
X002571Y002453D01*
X002593Y002468D01*
X002616Y002480D01*
X002642Y002488D01*
X002668Y002492D01*
X002694Y002492D01*
X002720Y002488D01*
X002746Y002480D01*
X002770Y002468D01*
X002791Y002453D01*
X002811Y002435D01*
X002827Y002415D01*
X002840Y002392D01*
X002850Y002367D01*
X002856Y002341D01*
X002858Y002315D01*
X002856Y002289D01*
X002850Y002263D01*
X002840Y002238D01*
X002827Y002215D01*
X002811Y002195D01*
X002791Y002177D01*
X002769Y002162D01*
X002746Y002150D01*
X002720Y002142D01*
X002694Y002138D01*
X002668Y002138D01*
X002642Y002142D01*
X002616Y002150D01*
X002592Y002162D01*
X002571Y002177D01*
X002551Y002195D01*
X002535Y002215D01*
X002522Y002238D01*
X002512Y002263D01*
X002506Y002289D01*
X002504Y002315D01*
X002504Y004048D02*
X002506Y004074D01*
X002512Y004100D01*
X002522Y004125D01*
X002535Y004148D01*
X002551Y004168D01*
X002571Y004186D01*
X002593Y004201D01*
X002616Y004213D01*
X002642Y004221D01*
X002668Y004225D01*
X002694Y004225D01*
X002720Y004221D01*
X002746Y004213D01*
X002770Y004201D01*
X002791Y004186D01*
X002811Y004168D01*
X002827Y004148D01*
X002840Y004125D01*
X002850Y004100D01*
X002856Y004074D01*
X002858Y004048D01*
X002856Y004022D01*
X002850Y003996D01*
X002840Y003971D01*
X002827Y003948D01*
X002811Y003928D01*
X002791Y003910D01*
X002769Y003895D01*
X002746Y003883D01*
X002720Y003875D01*
X002694Y003871D01*
X002668Y003871D01*
X002642Y003875D01*
X002616Y003883D01*
X002592Y003895D01*
X002571Y003910D01*
X002551Y003928D01*
X002535Y003948D01*
X002522Y003971D01*
X002512Y003996D01*
X002506Y004022D01*
X002504Y004048D01*
X001181Y006182D02*
X001116Y006171D01*
X001052Y006156D01*
X000989Y006138D01*
X000926Y006116D01*
X000865Y006091D01*
X000806Y006062D01*
X000748Y006030D01*
X000692Y005995D01*
X000639Y005957D01*
X000587Y005916D01*
X000538Y005872D01*
X000491Y005825D01*
X000447Y005776D01*
X000406Y005724D01*
X000368Y005671D01*
X000333Y005615D01*
X000301Y005557D01*
X000272Y005498D01*
X000247Y005437D01*
X000225Y005374D01*
X000207Y005311D01*
X000192Y005247D01*
X000181Y005182D01*
D11*
X007670Y004055D03*
X008693Y004055D03*
X008693Y003681D03*
X008693Y003307D03*
X007670Y003307D03*
D12*
X008307Y001925D03*
X009055Y001925D03*
X008681Y001098D03*
D13*
X007681Y001947D03*
X006431Y002347D03*
X005381Y002347D03*
X005381Y003016D03*
X006431Y003016D03*
X007681Y002616D03*
X007681Y004697D03*
X007681Y005366D03*
D14*
X010225Y003575D03*
X010225Y002788D03*
D15*
X012272Y001843D03*
X012272Y004520D03*
D16*
X003666Y003811D03*
X003666Y003496D03*
X003666Y003181D03*
X003666Y002866D03*
X003666Y002551D03*
D17*
X003666Y001410D03*
X001500Y001410D03*
X001500Y004953D03*
X003666Y004953D03*
D18*
X004914Y004331D03*
X006449Y004331D03*
D19*
X006181Y001638D03*
X005369Y001638D03*
X005369Y001038D03*
X006181Y001038D03*
D20*
X001018Y000499D02*
X012445Y000499D01*
X012517Y000522D02*
X012297Y000450D01*
X012181Y000441D01*
X012154Y000441D01*
X012130Y000441D01*
X001206Y000441D01*
X001103Y000463D01*
X000885Y000555D01*
X000699Y000699D01*
X000555Y000885D01*
X000463Y001103D01*
X000441Y001206D01*
X000441Y005157D01*
X000463Y005260D01*
X000555Y005477D01*
X000699Y005664D01*
X000885Y005808D01*
X001103Y005900D01*
X001206Y005921D01*
X012181Y005921D01*
X012297Y005912D01*
X012517Y005841D01*
X012705Y005705D01*
X012841Y005517D01*
X012912Y005297D01*
X012921Y005181D01*
X012921Y005142D01*
X012921Y005130D01*
X012921Y005015D01*
X011528Y005015D01*
X011423Y004909D01*
X011423Y004348D01*
X011016Y004740D01*
X010976Y004779D01*
X010974Y004781D01*
X010972Y004783D01*
X010918Y004803D01*
X010866Y004825D01*
X010863Y004825D01*
X010861Y004826D01*
X010804Y004825D01*
X009153Y004825D01*
X009043Y004779D01*
X009042Y004779D02*
X008058Y004779D01*
X008058Y004938D02*
X011451Y004938D01*
X011423Y004779D02*
X010977Y004779D01*
X011140Y004621D02*
X011423Y004621D01*
X011423Y004462D02*
X011304Y004462D01*
X010969Y003952D02*
X010685Y004225D01*
X009337Y004225D01*
X009109Y003998D01*
X009109Y003873D01*
X009097Y003860D01*
X009097Y003859D01*
X009109Y003813D01*
X009109Y003682D01*
X008694Y003682D01*
X008694Y003681D01*
X009109Y003681D01*
X009109Y003549D01*
X009097Y003504D01*
X009097Y003503D01*
X009109Y003490D01*
X009109Y003125D01*
X009004Y003019D01*
X008981Y003019D01*
X008981Y002842D01*
X009007Y002780D01*
X009139Y002648D01*
X009139Y003059D01*
X009245Y003165D01*
X011205Y003165D01*
X011263Y003106D01*
X011370Y003106D01*
X011381Y003118D01*
X011381Y003554D01*
X011310Y003623D01*
X011310Y003594D01*
X010243Y003594D01*
X010206Y003594D01*
X010206Y003952D01*
X009295Y003952D01*
X009250Y003940D01*
X009209Y003916D01*
X009175Y003882D01*
X009151Y003841D01*
X009139Y003796D01*
X009139Y003594D01*
X010206Y003594D01*
X010206Y003557D01*
X009139Y003557D01*
X009139Y003355D01*
X009151Y003309D01*
X009175Y003268D01*
X009209Y003234D01*
X009250Y003211D01*
X009295Y003198D01*
X010206Y003198D01*
X010206Y003556D01*
X010243Y003556D01*
X010243Y003198D01*
X011154Y003198D01*
X011200Y003211D01*
X011241Y003234D01*
X011274Y003268D01*
X011298Y003309D01*
X011310Y003355D01*
X011310Y003557D01*
X010243Y003557D01*
X010243Y003594D01*
X010243Y003952D01*
X010969Y003952D01*
X010933Y003986D02*
X009109Y003986D01*
X009106Y003828D02*
X009148Y003828D01*
X009139Y003669D02*
X009109Y003669D01*
X009099Y003511D02*
X009139Y003511D01*
X009140Y003352D02*
X009109Y003352D01*
X009109Y003194D02*
X011381Y003194D01*
X011381Y003352D02*
X011310Y003352D01*
X011310Y003511D02*
X011381Y003511D01*
X011981Y003511D02*
X012921Y003511D01*
X012921Y003669D02*
X011982Y003669D01*
X011981Y003684D02*
X011981Y003741D01*
X011980Y003744D01*
X011980Y003747D01*
X011958Y003798D01*
X011936Y003851D01*
X011934Y003853D01*
X011933Y003856D01*
X011892Y003895D01*
X011851Y003936D01*
X011849Y003937D01*
X011757Y004025D01*
X012921Y004025D01*
X012921Y002338D01*
X011528Y002338D01*
X011423Y002232D01*
X011423Y001453D01*
X011528Y001348D01*
X012921Y001348D01*
X012921Y001181D01*
X012912Y001066D01*
X012841Y000845D01*
X012705Y000658D01*
X012517Y000522D01*
X012703Y000657D02*
X000752Y000657D01*
X000608Y000816D02*
X004623Y000816D01*
X004655Y000783D02*
X004765Y000738D01*
X004885Y000738D01*
X005114Y000738D01*
X005144Y000708D01*
X005593Y000708D01*
X005699Y000813D01*
X005699Y001262D01*
X005623Y001338D01*
X005927Y001338D01*
X005851Y001262D01*
X005851Y001223D01*
X005835Y001206D01*
X005789Y001096D01*
X005789Y000976D01*
X005835Y000866D01*
X005851Y000850D01*
X005851Y000813D01*
X005957Y000708D01*
X006406Y000708D01*
X006434Y000736D01*
X006676Y000736D01*
X006796Y000736D01*
X006906Y000782D01*
X007134Y001010D01*
X007177Y000906D01*
X007273Y000811D01*
X007397Y000760D01*
X007532Y000760D01*
X007625Y000798D01*
X008392Y000798D01*
X008449Y000741D01*
X008913Y000741D01*
X009019Y000847D01*
X009019Y001350D01*
X008913Y001455D01*
X008449Y001455D01*
X008392Y001398D01*
X007625Y001398D01*
X007532Y001437D01*
X007397Y001437D01*
X007347Y001416D01*
X007347Y001614D01*
X007374Y001586D01*
X007415Y001563D01*
X007461Y001550D01*
X007663Y001550D01*
X007663Y001928D01*
X007700Y001928D01*
X007700Y001550D01*
X007902Y001550D01*
X007948Y001563D01*
X007989Y001586D01*
X008022Y001620D01*
X008023Y001621D01*
X008039Y001604D01*
X008080Y001580D01*
X008126Y001568D01*
X008307Y001568D01*
X008307Y001925D01*
X008308Y001925D01*
X008308Y001925D01*
X008645Y001925D01*
X008645Y001724D01*
X008633Y001678D01*
X008609Y001637D01*
X008575Y001604D01*
X008534Y001580D01*
X008489Y001568D01*
X008308Y001568D01*
X008308Y001925D01*
X008645Y001925D01*
X008645Y002126D01*
X008633Y002172D01*
X008609Y002213D01*
X008575Y002246D01*
X008534Y002270D01*
X008489Y002282D01*
X008308Y002282D01*
X008308Y001926D01*
X008307Y001926D01*
X008307Y002282D01*
X008126Y002282D01*
X008080Y002270D01*
X008039Y002246D01*
X008039Y002245D01*
X008022Y002274D01*
X008015Y002281D01*
X008058Y002325D01*
X008058Y002907D01*
X007960Y003006D01*
X007960Y003019D01*
X007980Y003019D01*
X008086Y003125D01*
X008086Y003490D01*
X007980Y003596D01*
X007731Y003596D01*
X007727Y003597D01*
X007612Y003597D01*
X007608Y003596D01*
X007359Y003596D01*
X007253Y003490D01*
X007253Y003125D01*
X007359Y003019D01*
X007380Y003019D01*
X007380Y002982D01*
X007305Y002907D01*
X007305Y002568D01*
X007239Y002634D01*
X007114Y002685D01*
X006979Y002685D01*
X006886Y002647D01*
X006799Y002647D01*
X006765Y002681D01*
X006808Y002725D01*
X006808Y003307D01*
X006731Y003384D01*
X006731Y003482D01*
X006898Y003482D01*
X007003Y003588D01*
X007003Y004397D01*
X007313Y004397D01*
X007367Y004344D01*
X007359Y004344D01*
X007253Y004238D01*
X007253Y003873D01*
X007359Y003767D01*
X007980Y003767D01*
X008086Y003873D01*
X008086Y004238D01*
X007988Y004336D01*
X008058Y004406D01*
X008058Y004988D01*
X008015Y005031D01*
X008022Y005039D01*
X008046Y005080D01*
X008058Y005126D01*
X008058Y005348D01*
X007700Y005348D01*
X007700Y005384D01*
X008058Y005384D01*
X008058Y005606D01*
X008046Y005652D01*
X008022Y005693D01*
X007989Y005727D01*
X007948Y005750D01*
X007902Y005763D01*
X007700Y005763D01*
X007700Y005385D01*
X007663Y005385D01*
X007663Y005763D01*
X007461Y005763D01*
X007415Y005750D01*
X007374Y005727D01*
X007341Y005693D01*
X007317Y005652D01*
X007305Y005606D01*
X007305Y005384D01*
X007663Y005384D01*
X007663Y005348D01*
X007305Y005348D01*
X007305Y005126D01*
X007317Y005080D01*
X007341Y005039D01*
X007348Y005031D01*
X007313Y004997D01*
X007003Y004997D01*
X007003Y005075D01*
X006898Y005181D01*
X006001Y005181D01*
X005895Y005075D01*
X005895Y003588D01*
X006001Y003482D01*
X006131Y003482D01*
X006131Y003384D01*
X006064Y003316D01*
X005749Y003316D01*
X005653Y003413D01*
X005110Y003413D01*
X005005Y003307D01*
X005005Y002725D01*
X005048Y002681D01*
X005005Y002638D01*
X005005Y002056D01*
X005081Y001979D01*
X005081Y001905D01*
X005039Y001862D01*
X005039Y001413D01*
X005114Y001338D01*
X004949Y001338D01*
X004857Y001430D01*
X004819Y001523D01*
X004723Y001619D01*
X004599Y001670D01*
X004464Y001670D01*
X004340Y001619D01*
X004338Y001617D01*
X004338Y001827D01*
X004325Y001873D01*
X004302Y001914D01*
X004268Y001947D01*
X004227Y001971D01*
X004181Y001983D01*
X003746Y001983D01*
X003746Y001490D01*
X003586Y001490D01*
X003586Y001983D01*
X003150Y001983D01*
X003104Y001971D01*
X003063Y001947D01*
X003029Y001914D01*
X003006Y001873D01*
X002994Y001827D01*
X002994Y001490D01*
X003586Y001490D01*
X003586Y001330D01*
X003746Y001330D01*
X003746Y000836D01*
X004181Y000836D01*
X004227Y000848D01*
X004268Y000872D01*
X004302Y000906D01*
X004325Y000947D01*
X004338Y000992D01*
X004338Y001046D01*
X004340Y001044D01*
X004433Y001006D01*
X004655Y000783D01*
X004464Y000974D02*
X004333Y000974D01*
X003746Y000974D02*
X003586Y000974D01*
X003586Y000836D02*
X003586Y001330D01*
X002994Y001330D01*
X002994Y000992D01*
X003006Y000947D01*
X003029Y000906D01*
X003063Y000872D01*
X003104Y000848D01*
X003150Y000836D01*
X003586Y000836D01*
X003586Y001133D02*
X003746Y001133D01*
X003746Y001291D02*
X003586Y001291D01*
X003586Y001450D02*
X001580Y001450D01*
X001580Y001490D02*
X002172Y001490D01*
X002172Y001827D01*
X002160Y001873D01*
X002136Y001914D01*
X002103Y001947D01*
X002062Y001971D01*
X002016Y001983D01*
X001580Y001983D01*
X001580Y001490D01*
X001420Y001490D01*
X001420Y001330D01*
X000828Y001330D01*
X000828Y000992D01*
X000840Y000947D01*
X000864Y000906D01*
X000898Y000872D01*
X000939Y000848D01*
X000984Y000836D01*
X001420Y000836D01*
X001420Y001330D01*
X001580Y001330D01*
X001580Y000836D01*
X002016Y000836D01*
X002062Y000848D01*
X002103Y000872D01*
X002136Y000906D01*
X002160Y000947D01*
X002172Y000992D01*
X002172Y001330D01*
X001580Y001330D01*
X001580Y001490D01*
X001420Y001490D02*
X001420Y001983D01*
X000984Y001983D01*
X000939Y001971D01*
X000898Y001947D01*
X000864Y001914D01*
X000840Y001873D01*
X000828Y001827D01*
X000828Y001490D01*
X001420Y001490D01*
X001420Y001450D02*
X000441Y001450D01*
X000441Y001291D02*
X000828Y001291D01*
X000828Y001133D02*
X000457Y001133D01*
X000517Y000974D02*
X000833Y000974D01*
X001420Y000974D02*
X001580Y000974D01*
X001580Y001133D02*
X001420Y001133D01*
X001420Y001291D02*
X001580Y001291D01*
X001580Y001608D02*
X001420Y001608D01*
X001420Y001767D02*
X001580Y001767D01*
X001580Y001925D02*
X001420Y001925D01*
X000876Y001925D02*
X000441Y001925D01*
X000441Y002084D02*
X002304Y002084D01*
X002311Y002068D02*
X002434Y001945D01*
X002594Y001878D01*
X002768Y001878D01*
X002929Y001945D01*
X003052Y002068D01*
X003119Y002228D01*
X003119Y002281D01*
X003150Y002273D01*
X003665Y002273D01*
X003665Y002551D01*
X003666Y002551D01*
X003666Y002273D01*
X004181Y002273D01*
X004227Y002285D01*
X004268Y002309D01*
X004302Y002343D01*
X004325Y002384D01*
X004338Y002429D01*
X004338Y002551D01*
X003666Y002551D01*
X003666Y002552D01*
X004338Y002552D01*
X004338Y002674D01*
X004334Y002689D01*
X004338Y002693D01*
X004338Y003008D01*
X004338Y003323D01*
X004338Y003669D01*
X004360Y003669D01*
X004338Y003669D02*
X004338Y003931D01*
X004360Y003931D01*
X004360Y003588D01*
X004465Y003482D01*
X005362Y003482D01*
X005468Y003588D01*
X005468Y005075D01*
X005362Y005181D01*
X004465Y005181D01*
X004360Y005075D01*
X004360Y004531D01*
X004337Y004531D01*
X004338Y004536D01*
X004338Y004873D01*
X003746Y004873D01*
X003746Y005033D01*
X004338Y005033D01*
X004338Y005370D01*
X004325Y005416D01*
X004302Y005457D01*
X004268Y005491D01*
X004227Y005514D01*
X004181Y005527D01*
X003746Y005527D01*
X003746Y005033D01*
X003586Y005033D01*
X003586Y005527D01*
X003150Y005527D01*
X003104Y005514D01*
X003063Y005491D01*
X003029Y005457D01*
X003006Y005416D01*
X002994Y005370D01*
X002994Y005033D01*
X003586Y005033D01*
X003586Y004873D01*
X002994Y004873D01*
X002994Y004536D01*
X003006Y004490D01*
X003029Y004449D01*
X003063Y004415D01*
X003104Y004392D01*
X003150Y004379D01*
X003555Y004379D01*
X003411Y004236D01*
X003366Y004125D01*
X003366Y004090D01*
X003119Y004090D01*
X003119Y004135D01*
X003052Y004295D01*
X002929Y004418D01*
X002768Y004485D01*
X002594Y004485D01*
X002434Y004418D01*
X002311Y004295D01*
X002244Y004135D01*
X002244Y003961D01*
X002311Y003800D01*
X002434Y003677D01*
X002594Y003610D01*
X002768Y003610D01*
X002929Y003677D01*
X002994Y003741D01*
X002994Y003669D01*
X002994Y003323D01*
X002994Y003008D01*
X002994Y002693D01*
X002998Y002689D01*
X002994Y002674D01*
X002994Y002621D01*
X002929Y002686D01*
X002768Y002752D01*
X002594Y002752D01*
X002434Y002686D01*
X002311Y002563D01*
X002244Y002402D01*
X002244Y002228D01*
X002311Y002068D01*
X002480Y001925D02*
X002125Y001925D01*
X002172Y001767D02*
X002994Y001767D01*
X002994Y001608D02*
X002172Y001608D01*
X002172Y001291D02*
X002994Y001291D01*
X002994Y001133D02*
X002172Y001133D01*
X002167Y000974D02*
X002998Y000974D01*
X003586Y001608D02*
X003746Y001608D01*
X003746Y001767D02*
X003586Y001767D01*
X003586Y001925D02*
X003746Y001925D01*
X004290Y001925D02*
X005081Y001925D01*
X005005Y002084D02*
X003059Y002084D01*
X003041Y001925D02*
X002883Y001925D01*
X003119Y002242D02*
X005005Y002242D01*
X005005Y002401D02*
X004330Y002401D01*
X004338Y002560D02*
X005005Y002560D01*
X005011Y002718D02*
X004338Y002718D01*
X004338Y002877D02*
X005005Y002877D01*
X005005Y003035D02*
X004338Y003035D01*
X004338Y003194D02*
X005005Y003194D01*
X005050Y003352D02*
X004338Y003352D01*
X004338Y003511D02*
X004436Y003511D01*
X004360Y003828D02*
X004338Y003828D01*
X003479Y004304D02*
X003044Y004304D01*
X003114Y004145D02*
X003374Y004145D01*
X003022Y004462D02*
X002823Y004462D01*
X002994Y004621D02*
X002172Y004621D01*
X002172Y004536D02*
X002172Y004873D01*
X001580Y004873D01*
X001580Y004379D01*
X002016Y004379D01*
X002062Y004392D01*
X002103Y004415D01*
X002136Y004449D01*
X002160Y004490D01*
X002172Y004536D01*
X002144Y004462D02*
X002540Y004462D01*
X002319Y004304D02*
X000441Y004304D01*
X000441Y004145D02*
X002249Y004145D01*
X002244Y003986D02*
X000441Y003986D01*
X000441Y003828D02*
X002299Y003828D01*
X002452Y003669D02*
X000441Y003669D01*
X000441Y003511D02*
X002994Y003511D01*
X002994Y003669D02*
X002911Y003669D01*
X002994Y003352D02*
X000441Y003352D01*
X000441Y003194D02*
X002994Y003194D01*
X002994Y003035D02*
X000441Y003035D01*
X000441Y002877D02*
X002994Y002877D01*
X002994Y002718D02*
X002851Y002718D01*
X002512Y002718D02*
X000441Y002718D01*
X000441Y002560D02*
X002309Y002560D01*
X002244Y002401D02*
X000441Y002401D01*
X000441Y002242D02*
X002244Y002242D01*
X000828Y001767D02*
X000441Y001767D01*
X000441Y001608D02*
X000828Y001608D01*
X003665Y002401D02*
X003666Y002401D01*
X004338Y001767D02*
X005039Y001767D01*
X005039Y001608D02*
X004734Y001608D01*
X004849Y001450D02*
X005039Y001450D01*
X005369Y001638D02*
X005381Y001650D01*
X005623Y001338D02*
X005623Y001338D01*
X005670Y001291D02*
X005880Y001291D01*
X005804Y001133D02*
X005699Y001133D01*
X005699Y000974D02*
X005790Y000974D01*
X006089Y001036D02*
X006181Y001038D01*
X006437Y001336D02*
X006436Y001338D01*
X006511Y001413D01*
X006511Y001862D01*
X006423Y001950D01*
X006703Y001950D01*
X006747Y001994D01*
X006747Y001471D01*
X006612Y001336D01*
X006437Y001336D01*
X006511Y001450D02*
X006726Y001450D01*
X006747Y001608D02*
X006511Y001608D01*
X006511Y001767D02*
X006747Y001767D01*
X006747Y001925D02*
X006448Y001925D01*
X006143Y001968D02*
X005957Y001968D01*
X005927Y001938D01*
X005681Y001938D01*
X005681Y001979D01*
X005758Y002056D01*
X005758Y002638D01*
X005715Y002681D01*
X005749Y002716D01*
X006064Y002716D01*
X006098Y002681D01*
X006055Y002638D01*
X006055Y002056D01*
X006143Y001968D01*
X006055Y002084D02*
X005758Y002084D01*
X005758Y002242D02*
X006055Y002242D01*
X006055Y002401D02*
X005758Y002401D01*
X005758Y002560D02*
X006055Y002560D01*
X006801Y002718D02*
X007305Y002718D01*
X007305Y002877D02*
X006808Y002877D01*
X006808Y003035D02*
X007343Y003035D01*
X007253Y003194D02*
X006808Y003194D01*
X006763Y003352D02*
X007253Y003352D01*
X007274Y003511D02*
X006926Y003511D01*
X007003Y003669D02*
X008277Y003669D01*
X008277Y003681D02*
X008277Y003549D01*
X008289Y003504D01*
X008290Y003503D01*
X008277Y003490D01*
X008277Y003125D01*
X008381Y003020D01*
X008381Y002842D01*
X008343Y002749D01*
X008343Y002614D01*
X008394Y002490D01*
X008490Y002394D01*
X008583Y002356D01*
X008740Y002199D01*
X008718Y002177D01*
X008718Y001673D01*
X008823Y001568D01*
X009287Y001568D01*
X009393Y001673D01*
X009393Y002177D01*
X009355Y002214D01*
X009355Y002248D01*
X009355Y002367D01*
X009337Y002411D01*
X011205Y002411D01*
X011300Y002506D01*
X011554Y002506D01*
X011664Y002552D01*
X011748Y002636D01*
X011936Y002824D01*
X011981Y002934D01*
X011981Y003054D01*
X011981Y003625D01*
X011982Y003627D01*
X011981Y003684D01*
X011945Y003828D02*
X012921Y003828D01*
X012921Y003986D02*
X011797Y003986D01*
X010768Y004145D02*
X009257Y004145D01*
X008725Y004462D02*
X008058Y004462D01*
X008058Y004621D02*
X008884Y004621D01*
X009034Y004771D02*
X008608Y004345D01*
X008605Y004344D01*
X008382Y004344D01*
X008277Y004238D01*
X008277Y003873D01*
X008290Y003860D01*
X008289Y003859D01*
X008277Y003813D01*
X008277Y003682D01*
X008693Y003682D01*
X008693Y003681D01*
X008277Y003681D01*
X008287Y003511D02*
X008065Y003511D01*
X008086Y003352D02*
X008277Y003352D01*
X008277Y003194D02*
X008086Y003194D01*
X007996Y003035D02*
X008366Y003035D01*
X008381Y002877D02*
X008058Y002877D01*
X008058Y002718D02*
X008343Y002718D01*
X008365Y002560D02*
X008058Y002560D01*
X008058Y002401D02*
X008483Y002401D01*
X008579Y002242D02*
X008696Y002242D01*
X008718Y002084D02*
X008645Y002084D01*
X008645Y001925D02*
X008718Y001925D01*
X008718Y001767D02*
X008645Y001767D01*
X008580Y001608D02*
X008783Y001608D01*
X008919Y001450D02*
X011426Y001450D01*
X011423Y001608D02*
X009328Y001608D01*
X009393Y001767D02*
X011423Y001767D01*
X011423Y001925D02*
X009393Y001925D01*
X009393Y002084D02*
X011423Y002084D01*
X011433Y002242D02*
X009355Y002242D01*
X009341Y002401D02*
X012921Y002401D01*
X012921Y002560D02*
X011671Y002560D01*
X011830Y002718D02*
X012921Y002718D01*
X012921Y002877D02*
X011958Y002877D01*
X011981Y003035D02*
X012921Y003035D01*
X012921Y003194D02*
X011981Y003194D01*
X011981Y003352D02*
X012921Y003352D01*
X010243Y003352D02*
X010206Y003352D01*
X010206Y003511D02*
X010243Y003511D01*
X010243Y003669D02*
X010206Y003669D01*
X010206Y003828D02*
X010243Y003828D01*
X009139Y003035D02*
X009020Y003035D01*
X008981Y002877D02*
X009139Y002877D01*
X009139Y002718D02*
X009069Y002718D01*
X008308Y002242D02*
X008307Y002242D01*
X008307Y002084D02*
X008308Y002084D01*
X008307Y001767D02*
X008308Y001767D01*
X008307Y001608D02*
X008308Y001608D01*
X008035Y001608D02*
X008011Y001608D01*
X007700Y001608D02*
X007663Y001608D01*
X007663Y001767D02*
X007700Y001767D01*
X007352Y001608D02*
X007347Y001608D01*
X007347Y001450D02*
X008444Y001450D01*
X009019Y001291D02*
X012921Y001291D01*
X012918Y001133D02*
X009019Y001133D01*
X009019Y000974D02*
X012883Y000974D01*
X012819Y000816D02*
X008988Y000816D01*
X007268Y000816D02*
X006940Y000816D01*
X007098Y000974D02*
X007149Y000974D01*
X006181Y001638D02*
X006088Y001638D01*
X007663Y001925D02*
X007700Y001925D01*
X005851Y000816D02*
X005699Y000816D01*
X005713Y003352D02*
X006100Y003352D01*
X005972Y003511D02*
X005391Y003511D01*
X005468Y003669D02*
X005895Y003669D01*
X005895Y003828D02*
X005468Y003828D01*
X005468Y003986D02*
X005895Y003986D01*
X005895Y004145D02*
X005468Y004145D01*
X005468Y004304D02*
X005895Y004304D01*
X005895Y004462D02*
X005468Y004462D01*
X005468Y004621D02*
X005895Y004621D01*
X005895Y004779D02*
X005468Y004779D01*
X005468Y004938D02*
X005895Y004938D01*
X005916Y005096D02*
X005447Y005096D01*
X004381Y005096D02*
X004338Y005096D01*
X004338Y005255D02*
X007305Y005255D01*
X007312Y005096D02*
X006982Y005096D01*
X007305Y005413D02*
X004326Y005413D01*
X003746Y005413D02*
X003586Y005413D01*
X003586Y005255D02*
X003746Y005255D01*
X003746Y005096D02*
X003586Y005096D01*
X003586Y004938D02*
X001580Y004938D01*
X001580Y004873D02*
X001580Y005033D01*
X001420Y005033D01*
X001420Y004873D01*
X000828Y004873D01*
X000828Y004536D01*
X000840Y004490D01*
X000864Y004449D01*
X000898Y004415D01*
X000939Y004392D01*
X000984Y004379D01*
X001420Y004379D01*
X001420Y004873D01*
X001580Y004873D01*
X001580Y004779D02*
X001420Y004779D01*
X001420Y004938D02*
X000441Y004938D01*
X000441Y004779D02*
X000828Y004779D01*
X000828Y004621D02*
X000441Y004621D01*
X000441Y004462D02*
X000856Y004462D01*
X001420Y004462D02*
X001580Y004462D01*
X001580Y004621D02*
X001420Y004621D01*
X002172Y004779D02*
X002994Y004779D01*
X002994Y005096D02*
X002172Y005096D01*
X002172Y005033D02*
X002172Y005370D01*
X002160Y005416D01*
X002136Y005457D01*
X002103Y005491D01*
X002062Y005514D01*
X002016Y005527D01*
X001580Y005527D01*
X001580Y005033D01*
X002172Y005033D01*
X002172Y005255D02*
X002994Y005255D01*
X003005Y005413D02*
X002161Y005413D01*
X001580Y005413D02*
X001420Y005413D01*
X001420Y005527D02*
X000984Y005527D01*
X000939Y005514D01*
X000898Y005491D01*
X000864Y005457D01*
X000840Y005416D01*
X000828Y005370D01*
X000828Y005033D01*
X001420Y005033D01*
X001420Y005527D01*
X001420Y005255D02*
X001580Y005255D01*
X001580Y005096D02*
X001420Y005096D01*
X000828Y005096D02*
X000441Y005096D01*
X000462Y005255D02*
X000828Y005255D01*
X000840Y005413D02*
X000528Y005413D01*
X000627Y005572D02*
X007305Y005572D01*
X007381Y005730D02*
X000784Y005730D01*
X001077Y005889D02*
X012369Y005889D01*
X012669Y005730D02*
X007982Y005730D01*
X007700Y005730D02*
X007663Y005730D01*
X007663Y005572D02*
X007700Y005572D01*
X007700Y005413D02*
X007663Y005413D01*
X008058Y005413D02*
X012875Y005413D01*
X012801Y005572D02*
X008058Y005572D01*
X008058Y005255D02*
X012916Y005255D01*
X012921Y005096D02*
X008050Y005096D01*
X009034Y004771D02*
X009043Y004779D01*
X008342Y004304D02*
X008020Y004304D01*
X008086Y004145D02*
X008277Y004145D01*
X008277Y003986D02*
X008086Y003986D01*
X008041Y003828D02*
X008281Y003828D01*
X007298Y003828D02*
X007003Y003828D01*
X007003Y003986D02*
X007253Y003986D01*
X007253Y004145D02*
X007003Y004145D01*
X007003Y004304D02*
X007319Y004304D01*
X004360Y004621D02*
X004338Y004621D01*
X004338Y004779D02*
X004360Y004779D01*
X004360Y004938D02*
X003746Y004938D01*
D21*
X007119Y004181D03*
X007181Y003681D03*
X007631Y003681D03*
X008181Y003681D03*
X009306Y004056D03*
X008550Y004481D03*
X008181Y004481D03*
X008181Y002831D03*
X008681Y002681D03*
X007047Y002347D03*
X007464Y001098D03*
X004531Y001331D03*
D22*
X004825Y001038D01*
X005369Y001038D01*
X006089Y001036D02*
X006736Y001036D01*
X007047Y001347D01*
X007047Y002347D01*
X006431Y002347D01*
X005381Y002347D02*
X005381Y001650D01*
X005369Y001638D02*
X006088Y001638D01*
X007464Y001098D02*
X008681Y001098D01*
X009055Y001925D02*
X009055Y002307D01*
X008681Y002681D01*
X008681Y003296D01*
X008693Y004055D02*
X008743Y004055D01*
X009213Y004525D01*
X010806Y004525D01*
X011681Y003681D01*
X011681Y002994D01*
X011494Y002806D01*
X010243Y002806D01*
X010225Y002788D01*
X007681Y004067D02*
X007681Y004697D01*
X006197Y004697D01*
X006431Y004081D02*
X006431Y003016D01*
X005381Y003016D01*
X003831Y004231D02*
X003666Y004066D01*
X003831Y004231D02*
X004864Y004231D01*
D23*
X004914Y004331D01*
X004881Y004299D01*
X004881Y004081D01*
X004831Y004281D01*
X004894Y004311D02*
X004914Y004331D01*
X006181Y004681D02*
X006331Y004681D01*
X006681Y004331D01*
X006431Y004081D01*
X006181Y004681D02*
X006197Y004697D01*
X007670Y004055D02*
X007681Y004067D01*
X008681Y003296D02*
X008693Y003307D01*
X007681Y002616D02*
X007670Y002628D01*
D24*
X007670Y003307D01*
X003666Y003811D02*
X003666Y004066D01*
D25*
X006449Y004331D02*
X006681Y004331D01*
M02*
