G75*
G70*
%OFA0B0*%
%FSLAX24Y24*%
%IPPOS*%
%LPD*%
%AMOC8*
5,1,8,0,0,1.08239X$1,22.5*
%
%ADD10C,0.0120*%
%ADD11C,0.0080*%
%ADD12C,0.0070*%
D10*
X003275Y002905D02*
X006895Y002905D01*
X006931Y002908D01*
X006967Y002914D01*
X007002Y002924D01*
X007036Y002937D01*
X007068Y002954D01*
X007099Y002973D01*
X007127Y002995D01*
X007154Y003021D01*
X007177Y003048D01*
X007198Y003078D01*
X007216Y003109D01*
X007231Y003143D01*
X007242Y003177D01*
X007250Y003213D01*
X007254Y003249D01*
X007255Y003285D01*
X007255Y003395D01*
X007254Y003395D02*
X007255Y003432D01*
X007251Y003469D01*
X007244Y003506D01*
X007233Y003542D01*
X007219Y003576D01*
X007202Y003609D01*
X007181Y003640D01*
X007157Y003669D01*
X007131Y003696D01*
X007102Y003719D01*
X007071Y003740D01*
X007039Y003758D01*
X007004Y003772D01*
X006969Y003783D01*
X006932Y003791D01*
X006895Y003794D01*
X006895Y003795D02*
X003275Y003795D01*
X003239Y003792D01*
X003203Y003786D01*
X003168Y003776D01*
X003134Y003763D01*
X003102Y003746D01*
X003071Y003727D01*
X003043Y003705D01*
X003016Y003679D01*
X002993Y003652D01*
X002972Y003622D01*
X002954Y003591D01*
X002939Y003557D01*
X002928Y003523D01*
X002920Y003487D01*
X002916Y003451D01*
X002915Y003415D01*
X002915Y003285D01*
X002916Y003249D01*
X002920Y003213D01*
X002928Y003177D01*
X002939Y003143D01*
X002954Y003109D01*
X002972Y003078D01*
X002993Y003048D01*
X003016Y003021D01*
X003043Y002995D01*
X003071Y002973D01*
X003102Y002954D01*
X003134Y002937D01*
X003168Y002924D01*
X003203Y002914D01*
X003239Y002908D01*
X003275Y002905D01*
D11*
X002363Y000905D02*
X002363Y000782D01*
X002425Y000720D01*
X002548Y000720D01*
X002610Y000782D01*
X002610Y000905D01*
X002548Y000967D01*
X002425Y000967D01*
X002363Y000905D01*
X002777Y000905D02*
X002777Y000782D01*
X002839Y000720D01*
X003024Y000720D01*
X003177Y000720D02*
X003300Y000720D01*
X003239Y000720D02*
X003239Y000967D01*
X003300Y000967D01*
X003239Y001090D02*
X003239Y001152D01*
X003515Y001090D02*
X003515Y000720D01*
X003577Y000720D02*
X003453Y000720D01*
X003744Y000782D02*
X003744Y000905D01*
X003806Y000967D01*
X003991Y000967D01*
X003991Y001090D02*
X003991Y000720D01*
X003806Y000720D01*
X003744Y000782D01*
X004159Y000782D02*
X004220Y000720D01*
X004405Y000720D01*
X004220Y000843D02*
X004159Y000782D01*
X004220Y000843D02*
X004344Y000843D01*
X004405Y000905D01*
X004344Y000967D01*
X004159Y000967D01*
X004573Y000967D02*
X004573Y000720D01*
X004758Y000720D01*
X004820Y000782D01*
X004820Y000967D01*
X004987Y001090D02*
X005234Y000720D01*
X005402Y000720D02*
X005402Y000905D01*
X005463Y000967D01*
X005525Y000905D01*
X005525Y000720D01*
X005648Y000720D02*
X005648Y000967D01*
X005587Y000967D01*
X005525Y000905D01*
X005816Y000905D02*
X005816Y000782D01*
X005878Y000720D01*
X006001Y000720D01*
X006063Y000782D01*
X006063Y000905D01*
X006001Y000967D01*
X005878Y000967D01*
X005816Y000905D01*
X006230Y000967D02*
X006415Y000967D01*
X006477Y000905D01*
X006477Y000782D01*
X006415Y000720D01*
X006230Y000720D01*
X006623Y000720D02*
X006684Y000720D01*
X006684Y000782D01*
X006623Y000782D01*
X006623Y000720D01*
X006852Y000782D02*
X006914Y000843D01*
X007037Y000843D01*
X007099Y000905D01*
X007037Y000967D01*
X006852Y000967D01*
X006852Y000782D02*
X006914Y000720D01*
X007099Y000720D01*
X007266Y000720D02*
X007451Y000720D01*
X007513Y000782D01*
X007513Y000905D01*
X007451Y000967D01*
X007266Y000967D01*
X007728Y000967D02*
X007728Y000720D01*
X007789Y000720D02*
X007666Y000720D01*
X007957Y000720D02*
X007957Y000905D01*
X008018Y000967D01*
X008204Y000967D01*
X008204Y000720D01*
X008371Y000782D02*
X008371Y000905D01*
X008433Y000967D01*
X008556Y000967D01*
X008618Y000905D01*
X008618Y000782D01*
X008556Y000720D01*
X008433Y000720D01*
X008371Y000782D01*
X008778Y000967D02*
X008840Y000967D01*
X008963Y000843D01*
X009116Y000720D02*
X009178Y000782D01*
X009178Y001029D01*
X009240Y000967D02*
X009116Y000967D01*
X008963Y000967D02*
X008963Y000720D01*
X009407Y000843D02*
X009407Y000905D01*
X009469Y000967D01*
X009592Y000967D01*
X009654Y000905D01*
X009654Y000782D01*
X009592Y000720D01*
X009469Y000720D01*
X009407Y000843D02*
X009654Y000843D01*
X009821Y000843D02*
X009821Y000905D01*
X009883Y000967D01*
X010007Y000967D01*
X010068Y000905D01*
X010068Y000782D01*
X010007Y000720D01*
X009883Y000720D01*
X009821Y000843D02*
X010068Y000843D01*
X010228Y000967D02*
X010290Y000967D01*
X010414Y000843D01*
X010414Y000720D02*
X010414Y000967D01*
X010566Y000905D02*
X010690Y000905D01*
X010628Y001029D02*
X010566Y001090D01*
X010628Y001029D02*
X010628Y000720D01*
X010835Y000720D02*
X010897Y000720D01*
X010897Y000782D01*
X010835Y000782D01*
X010835Y000720D01*
X011064Y000782D02*
X011064Y000967D01*
X011311Y000967D02*
X011311Y000782D01*
X011250Y000720D01*
X011188Y000782D01*
X011126Y000720D01*
X011064Y000782D01*
X011479Y000782D02*
X011479Y000967D01*
X011726Y000967D02*
X011726Y000782D01*
X011664Y000720D01*
X011602Y000782D01*
X011540Y000720D01*
X011479Y000782D01*
X011893Y000782D02*
X011955Y000720D01*
X012017Y000782D01*
X012078Y000720D01*
X012140Y000782D01*
X012140Y000967D01*
X011893Y000967D02*
X011893Y000782D01*
X007789Y000967D02*
X007728Y000967D01*
X007728Y001090D02*
X007728Y001152D01*
X006963Y003195D02*
X006963Y003504D01*
X006902Y003565D01*
X006749Y003442D02*
X006749Y003195D01*
X006749Y003318D02*
X006625Y003442D01*
X006564Y003442D01*
X006403Y003380D02*
X006342Y003442D01*
X006218Y003442D01*
X006157Y003380D01*
X006157Y003318D01*
X006403Y003318D01*
X006403Y003257D02*
X006403Y003380D01*
X006403Y003257D02*
X006342Y003195D01*
X006218Y003195D01*
X005989Y003257D02*
X005927Y003195D01*
X005804Y003195D01*
X005989Y003257D02*
X005989Y003380D01*
X005927Y003442D01*
X005804Y003442D01*
X005742Y003380D01*
X005742Y003318D01*
X005989Y003318D01*
X005575Y003442D02*
X005451Y003442D01*
X005513Y003504D02*
X005513Y003257D01*
X005451Y003195D01*
X005299Y003195D02*
X005299Y003442D01*
X005299Y003318D02*
X005175Y003442D01*
X005113Y003442D01*
X004953Y003380D02*
X004953Y003257D01*
X004892Y003195D01*
X004768Y003195D01*
X004706Y003257D01*
X004706Y003380D01*
X004768Y003442D01*
X004892Y003442D01*
X004953Y003380D01*
X004539Y003442D02*
X004539Y003195D01*
X004292Y003195D02*
X004292Y003380D01*
X004354Y003442D01*
X004539Y003442D01*
X004125Y003442D02*
X004063Y003442D01*
X004063Y003195D01*
X004125Y003195D02*
X004001Y003195D01*
X003848Y003257D02*
X003787Y003195D01*
X003601Y003195D01*
X003434Y003195D02*
X003249Y003195D01*
X003187Y003257D01*
X003249Y003318D01*
X003372Y003318D01*
X003434Y003380D01*
X003372Y003442D01*
X003187Y003442D01*
X003601Y003442D02*
X003787Y003442D01*
X003848Y003380D01*
X003848Y003257D01*
X004063Y003565D02*
X004063Y003627D01*
X006902Y003380D02*
X007025Y003380D01*
X003577Y001090D02*
X003515Y001090D01*
X003024Y000967D02*
X002839Y000967D01*
X002777Y000905D01*
X003024Y000967D02*
X003024Y000597D01*
D12*
X005180Y001520D02*
X005180Y001740D01*
X005235Y001795D01*
X005345Y001795D01*
X005400Y001740D01*
X005400Y001520D01*
X005345Y001465D01*
X005235Y001465D01*
X005180Y001520D01*
X005549Y001630D02*
X005549Y001740D01*
X005604Y001795D01*
X005769Y001795D01*
X005769Y001465D01*
X005769Y001575D02*
X005604Y001575D01*
X005549Y001630D01*
X005904Y001465D02*
X006014Y001465D01*
X005959Y001465D02*
X005959Y001795D01*
X006014Y001795D02*
X005904Y001795D01*
X006383Y001795D02*
X006383Y001465D01*
X006162Y001465D01*
X006531Y001520D02*
X006586Y001465D01*
X006751Y001465D01*
X006751Y001795D01*
X006586Y001795D01*
X006531Y001740D01*
X006531Y001685D01*
X006586Y001630D01*
X006751Y001630D01*
X006899Y001575D02*
X006899Y001520D01*
X006954Y001465D01*
X007064Y001465D01*
X007119Y001520D01*
X007064Y001630D02*
X006954Y001630D01*
X006899Y001575D01*
X007064Y001630D02*
X007119Y001685D01*
X007119Y001740D01*
X007064Y001795D01*
X006954Y001795D01*
X006899Y001740D01*
X006586Y001630D02*
X006531Y001575D01*
X006531Y001520D01*
X007267Y001520D02*
X007322Y001465D01*
X007433Y001465D01*
X007488Y001520D01*
X007488Y001795D01*
X007267Y001795D02*
X007267Y001520D01*
X007985Y001520D02*
X007985Y001465D01*
X008040Y001465D01*
X008040Y001520D01*
X007985Y001520D01*
X007985Y001630D02*
X008040Y001630D01*
X008040Y001685D01*
X007985Y001685D01*
X007985Y001630D01*
X008188Y001520D02*
X008243Y001465D01*
X008353Y001465D01*
X008408Y001520D01*
X008408Y001795D01*
X008188Y001795D02*
X008188Y001520D01*
X008556Y001465D02*
X008722Y001630D01*
X008777Y001575D02*
X008556Y001795D01*
X008777Y001795D02*
X008777Y001465D01*
X008925Y001520D02*
X008980Y001465D01*
X009090Y001465D01*
X009145Y001520D01*
X009090Y001630D02*
X008980Y001630D01*
X008925Y001575D01*
X008925Y001520D01*
X009090Y001630D02*
X009145Y001685D01*
X009145Y001740D01*
X009090Y001795D01*
X008980Y001795D01*
X008925Y001740D01*
X008946Y002090D02*
X009186Y002090D01*
X009186Y002450D01*
X008790Y002330D02*
X008730Y002330D01*
X008730Y002090D01*
X008790Y002090D02*
X008670Y002090D01*
X008526Y002090D02*
X008526Y002450D01*
X008346Y002450D01*
X008286Y002390D01*
X008286Y002270D01*
X008346Y002210D01*
X008526Y002210D01*
X008730Y002450D02*
X008730Y002510D01*
X008130Y002270D02*
X008130Y002150D01*
X008070Y002090D01*
X007950Y002090D01*
X007890Y002150D01*
X007890Y002270D01*
X007950Y002330D01*
X008070Y002330D01*
X008130Y002270D01*
X007339Y002270D02*
X007339Y002150D01*
X007278Y002090D01*
X007098Y002090D01*
X006943Y002150D02*
X006883Y002090D01*
X006762Y002090D01*
X006943Y002150D02*
X006943Y002270D01*
X006883Y002330D01*
X006762Y002330D01*
X006702Y002270D01*
X006702Y002210D01*
X006943Y002210D01*
X007098Y002330D02*
X007278Y002330D01*
X007339Y002270D01*
X006547Y002090D02*
X006427Y002090D01*
X006487Y002090D02*
X006487Y002450D01*
X006547Y002450D01*
X006283Y002450D02*
X006223Y002450D01*
X006223Y002090D01*
X006283Y002090D02*
X006163Y002090D01*
X005623Y002150D02*
X005563Y002090D01*
X005383Y002090D01*
X005227Y002090D02*
X005227Y002450D01*
X005167Y002330D02*
X005047Y002330D01*
X004987Y002270D01*
X004987Y002090D01*
X004831Y002150D02*
X004771Y002210D01*
X004591Y002210D01*
X004591Y002270D02*
X004591Y002090D01*
X004771Y002090D01*
X004831Y002150D01*
X004771Y002330D02*
X004651Y002330D01*
X004591Y002270D01*
X004435Y002210D02*
X004315Y002330D01*
X004255Y002330D01*
X004105Y002270D02*
X004105Y002150D01*
X004045Y002090D01*
X003865Y002090D01*
X003865Y002030D02*
X003865Y002330D01*
X004045Y002330D01*
X004105Y002270D01*
X004435Y002330D02*
X004435Y002090D01*
X003985Y001970D02*
X003925Y001970D01*
X003865Y002030D01*
X003709Y002150D02*
X003649Y002090D01*
X003529Y002090D01*
X003709Y002150D02*
X003709Y002270D01*
X003649Y002330D01*
X003529Y002330D01*
X003469Y002270D01*
X003469Y002210D01*
X003709Y002210D01*
X003313Y002210D02*
X003193Y002330D01*
X003133Y002330D01*
X003313Y002330D02*
X003313Y002090D01*
X005167Y002330D02*
X005227Y002270D01*
X005383Y002330D02*
X005563Y002330D01*
X005623Y002270D01*
X005623Y002150D01*
X009738Y002150D02*
X009798Y002090D01*
X009978Y002090D01*
X009978Y002450D01*
X009798Y002450D01*
X009738Y002390D01*
X009738Y002330D01*
X009798Y002270D01*
X009978Y002270D01*
X010134Y002210D02*
X010134Y002150D01*
X010194Y002090D01*
X010314Y002090D01*
X010374Y002150D01*
X010530Y002150D02*
X010530Y002450D01*
X010374Y002390D02*
X010374Y002330D01*
X010314Y002270D01*
X010194Y002270D01*
X010134Y002210D01*
X010134Y002390D02*
X010194Y002450D01*
X010314Y002450D01*
X010374Y002390D01*
X010530Y002150D02*
X010590Y002090D01*
X010710Y002090D01*
X010770Y002150D01*
X010770Y002450D01*
X009798Y002270D02*
X009738Y002210D01*
X009738Y002150D01*
M02*
