G75*
G70*
%OFA0B0*%
%FSLAX24Y24*%
%IPPOS*%
%LPD*%
%AMOC8*
5,1,8,0,0,1.08239X$1,22.5*
%
%ADD10C,0.0560*%
%ADD11C,0.0317*%
%ADD12C,0.0396*%
%ADD13C,0.0160*%
%ADD14C,0.0180*%
D10*
X010305Y002911D03*
X010305Y003699D03*
D11*
X009490Y003680D03*
X009439Y003210D03*
X008930Y002930D03*
X008430Y003080D03*
X007295Y002595D03*
X007713Y001347D03*
X004780Y001580D03*
X007430Y003930D03*
X007880Y003930D03*
X008430Y003930D03*
X007368Y004310D03*
X008430Y004730D03*
X008924Y004730D03*
D12*
X004180Y005180D03*
X003680Y005055D03*
X001930Y005305D03*
X001555Y005055D03*
X001930Y001805D03*
X001555Y001555D03*
X003680Y001555D03*
X004180Y001680D03*
D13*
X001351Y000712D02*
X001134Y000803D01*
X000947Y000947D01*
X000803Y001134D01*
X000712Y001351D01*
X000690Y001454D01*
X000690Y005406D01*
X000712Y005509D01*
X000803Y005726D01*
X000947Y005913D01*
X001134Y006057D01*
X001351Y006148D01*
X001454Y006170D01*
X011930Y006170D01*
X012046Y006161D01*
X012266Y006089D01*
X012453Y005953D01*
X012589Y005766D01*
X012661Y005546D01*
X012670Y005430D01*
X012670Y001430D01*
X012661Y001314D01*
X012589Y001094D01*
X012453Y000907D01*
X012266Y000771D01*
X012046Y000699D01*
X011930Y000690D01*
X001454Y000690D01*
X001351Y000712D01*
X001267Y000747D02*
X012193Y000747D01*
X012452Y000906D02*
X001001Y000906D01*
X000857Y001064D02*
X007517Y001064D01*
X007521Y001060D02*
X007646Y001008D01*
X007780Y001008D01*
X007905Y001060D01*
X008000Y001155D01*
X008052Y001280D01*
X008052Y001414D01*
X008000Y001539D01*
X007905Y001634D01*
X007780Y001686D01*
X007646Y001686D01*
X007521Y001634D01*
X007504Y001617D01*
X005125Y001617D01*
X005119Y001623D01*
X005119Y001647D01*
X005067Y001772D01*
X004972Y001867D01*
X004847Y001919D01*
X004713Y001919D01*
X004588Y001867D01*
X004493Y001772D01*
X004441Y001647D01*
X004441Y001513D01*
X004493Y001388D01*
X004588Y001293D01*
X004713Y001241D01*
X004737Y001241D01*
X004860Y001118D01*
X004959Y001077D01*
X007504Y001077D01*
X007521Y001060D01*
X007909Y001064D02*
X012568Y001064D01*
X012631Y001223D02*
X008028Y001223D01*
X008052Y001381D02*
X012666Y001381D01*
X012670Y001540D02*
X008000Y001540D01*
X007487Y002308D02*
X007363Y002257D01*
X007228Y002257D01*
X007103Y002308D01*
X007008Y002403D01*
X006957Y002528D01*
X006957Y002663D01*
X007008Y002787D01*
X007103Y002883D01*
X007228Y002934D01*
X007363Y002934D01*
X007487Y002883D01*
X007504Y002865D01*
X008484Y002865D01*
X008591Y002973D01*
X008591Y002997D01*
X008643Y003122D01*
X008738Y003217D01*
X008863Y003269D01*
X008997Y003269D01*
X009122Y003217D01*
X009217Y003122D01*
X009269Y002997D01*
X009269Y002863D01*
X009217Y002738D01*
X009122Y002643D01*
X008997Y002591D01*
X008973Y002591D01*
X008748Y002366D01*
X008649Y002325D01*
X008542Y002325D01*
X007504Y002325D01*
X007487Y002308D01*
X007080Y002332D02*
X003307Y002332D01*
X003301Y002316D02*
X003367Y002477D01*
X003367Y002651D01*
X003301Y002811D01*
X003178Y002934D01*
X003017Y003001D01*
X002843Y003001D01*
X002682Y002934D01*
X002559Y002811D01*
X002493Y002651D01*
X002493Y002477D01*
X002559Y002316D01*
X002682Y002193D01*
X002843Y002127D01*
X003017Y002127D01*
X003178Y002193D01*
X003301Y002316D01*
X003130Y002174D02*
X012670Y002174D01*
X012670Y002332D02*
X008665Y002332D01*
X008872Y002491D02*
X010119Y002491D01*
X010044Y002521D02*
X010213Y002451D01*
X010396Y002451D01*
X010566Y002521D01*
X010695Y002651D01*
X010765Y002820D01*
X010765Y003003D01*
X010695Y003172D01*
X010566Y003301D01*
X010550Y003308D01*
X010605Y003348D01*
X010656Y003399D01*
X010698Y003458D01*
X010731Y003522D01*
X010754Y003591D01*
X010765Y003662D01*
X010765Y003699D01*
X010765Y003735D01*
X010754Y003806D01*
X010731Y003875D01*
X010698Y003940D01*
X010656Y003998D01*
X010605Y004050D01*
X010546Y004092D01*
X010482Y004125D01*
X010413Y004147D01*
X010341Y004159D01*
X010305Y004159D01*
X010269Y004159D01*
X010197Y004147D01*
X010128Y004125D01*
X010064Y004092D01*
X010005Y004050D01*
X009954Y003998D01*
X009912Y003940D01*
X009879Y003875D01*
X009856Y003806D01*
X009845Y003735D01*
X009845Y003699D01*
X010305Y003699D01*
X010305Y004159D01*
X010305Y003699D01*
X010305Y003699D01*
X010305Y003699D01*
X010765Y003699D01*
X010305Y003699D01*
X010305Y003699D01*
X009845Y003699D01*
X009845Y003662D01*
X009856Y003591D01*
X009879Y003522D01*
X009912Y003458D01*
X009954Y003399D01*
X010005Y003348D01*
X010060Y003308D01*
X010044Y003301D01*
X009915Y003172D01*
X009845Y003003D01*
X009845Y002820D01*
X009915Y002651D01*
X010044Y002521D01*
X009917Y002649D02*
X009128Y002649D01*
X009246Y002808D02*
X009850Y002808D01*
X009845Y002966D02*
X009269Y002966D01*
X009215Y003125D02*
X009895Y003125D01*
X010026Y003283D02*
X000690Y003283D01*
X000690Y003125D02*
X008645Y003125D01*
X008584Y002966D02*
X003102Y002966D01*
X003302Y002808D02*
X007028Y002808D01*
X006957Y002649D02*
X003367Y002649D01*
X003367Y002491D02*
X006972Y002491D01*
X005098Y001698D02*
X012670Y001698D01*
X012670Y001857D02*
X004983Y001857D01*
X004577Y001857D02*
X000690Y001857D01*
X000690Y002015D02*
X012670Y002015D01*
X012670Y002491D02*
X010491Y002491D01*
X010693Y002649D02*
X012670Y002649D01*
X012670Y002808D02*
X010760Y002808D01*
X010765Y002966D02*
X012670Y002966D01*
X012670Y003125D02*
X010715Y003125D01*
X010584Y003283D02*
X012670Y003283D01*
X012670Y003442D02*
X010687Y003442D01*
X010755Y003600D02*
X012670Y003600D01*
X012670Y003759D02*
X010761Y003759D01*
X010710Y003917D02*
X012670Y003917D01*
X012670Y004076D02*
X010569Y004076D01*
X010305Y004076D02*
X010305Y004076D01*
X010305Y003917D02*
X010305Y003917D01*
X010041Y004076D02*
X003312Y004076D01*
X003301Y004049D02*
X003367Y004209D01*
X003367Y004383D01*
X003301Y004544D01*
X003178Y004667D01*
X003017Y004733D01*
X002843Y004733D01*
X002682Y004667D01*
X002559Y004544D01*
X002493Y004383D01*
X002493Y004209D01*
X002559Y004049D01*
X002682Y003926D01*
X002843Y003859D01*
X003017Y003859D01*
X003178Y003926D01*
X003301Y004049D01*
X003157Y003917D02*
X009900Y003917D01*
X009849Y003759D02*
X000690Y003759D01*
X000690Y003600D02*
X009855Y003600D01*
X009923Y003442D02*
X000690Y003442D01*
X000690Y003917D02*
X002703Y003917D01*
X002548Y004076D02*
X000690Y004076D01*
X000690Y004234D02*
X002493Y004234D01*
X002497Y004393D02*
X000690Y004393D01*
X000690Y004551D02*
X002567Y004551D01*
X002786Y004710D02*
X000690Y004710D01*
X000690Y004868D02*
X012670Y004868D01*
X012670Y004710D02*
X003074Y004710D01*
X003293Y004551D02*
X012670Y004551D01*
X012670Y004393D02*
X003363Y004393D01*
X003367Y004234D02*
X012670Y004234D01*
X012670Y005027D02*
X000690Y005027D01*
X000690Y005185D02*
X012670Y005185D01*
X012670Y005344D02*
X000690Y005344D01*
X000710Y005502D02*
X012664Y005502D01*
X012624Y005661D02*
X000776Y005661D01*
X000875Y005819D02*
X012551Y005819D01*
X012420Y005978D02*
X001031Y005978D01*
X001322Y006136D02*
X012122Y006136D01*
X010305Y003759D02*
X010305Y003759D01*
X004756Y001223D02*
X000766Y001223D01*
X000705Y001381D02*
X004500Y001381D01*
X004441Y001540D02*
X000690Y001540D01*
X000690Y001698D02*
X004462Y001698D01*
X002730Y002174D02*
X000690Y002174D01*
X000690Y002332D02*
X002553Y002332D01*
X002493Y002491D02*
X000690Y002491D01*
X000690Y002649D02*
X002493Y002649D01*
X002558Y002808D02*
X000690Y002808D01*
X000690Y002966D02*
X002758Y002966D01*
D14*
X004780Y001580D02*
X005013Y001347D01*
X007713Y001347D01*
X007295Y002595D02*
X008595Y002595D01*
X008930Y002930D01*
M02*
