%
M48
M72
T01C0.0157
T02C0.0236
T03C0.0315
T04C0.0354
%
T01
X4905Y1722
X7295Y2850
X7380Y3435
X7380Y3930
X7430Y4305
X7880Y4305
X8430Y4305
X9493Y4405
X8430Y5095
X7380Y4680
X8430Y3515
X8930Y3305
X10930Y2930
X11555Y3430
X11993Y3430
X12430Y3430
X12430Y4180
X11993Y4180
X11555Y4180
X7713Y1722
T02
X1555Y1930
X1930Y2180
X3680Y1930
X4180Y2055
X3680Y5430
X4180Y5555
X1930Y5680
X1555Y5430
T03
X10305Y4199
X10305Y3411
T04
X2930Y2939
X2930Y4671
M30
